<svg width="25" height="22" viewBox="0 0 25 22" fill="none" xmlns="http://www.w3.org/2000/svg">
<g clip-path="url(#clip0_3570_175)">
<path d="M5.53239 1.94317L9.44735 5.1921L8.76429 5.08551L5.26666 2.22803L5.53239 1.94317Z" fill="url(#paint0_linear_3570_175)"/>
<path d="M20.9648 16.466L17.4824 12.7524L17.6338 13.4308L20.7012 16.7511L20.9648 16.466Z" fill="url(#paint1_linear_3570_175)"/>
<path d="M16.4258 20.3888C16.7414 19.8975 16.8731 19.3207 17.0905 18.7859C17.413 17.9875 17.7314 17.1886 18.0175 16.3774C18.2485 15.7274 18.2376 15.021 18.0946 14.3606C17.961 13.7459 17.7502 13.2133 17.3589 12.7273C17.1787 12.5041 16.9531 12.3096 16.7562 12.1036C16.1835 11.511 15.6088 10.9183 15.0362 10.3257C14.9461 10.2322 13.4483 8.83755 13.4602 8.82622C13.4504 8.83779 11.9671 7.42784 11.8674 7.34381C11.2416 6.80867 10.616 6.27144 9.98809 5.73605C9.77182 5.5511 9.56112 5.33708 9.32989 5.17159C8.82053 4.80955 8.27839 4.63475 7.66111 4.54233C6.9981 4.44449 6.29814 4.48028 5.66878 4.75594C4.88578 5.10042 4.11409 5.47384 3.34399 5.85171C2.72387 6.15607 1.76894 6.35059 1.50163 7.07484C1.48269 7.12781 1.46142 7.18262 1.46743 7.23854C1.47378 7.30938 1.52161 7.36815 1.56836 7.41829C1.79637 7.6641 2.22398 7.9867 2.57553 7.92014C2.92499 7.85334 3.29598 7.53426 3.58894 7.3397C3.96677 7.08727 4.33887 6.8299 4.71304 6.57279C5.05953 6.33574 5.40419 6.09636 5.75093 5.85722C6.8328 5.10865 8.31483 4.89603 9.34859 5.81301C9.82347 6.23466 13.0734 9.24322 13.0734 9.24322C13.0734 9.24322 16.2729 12.3031 16.7232 12.7537C17.7015 13.73 17.5925 15.2333 16.9241 16.3707C16.7102 16.7339 16.4984 17.0974 16.2845 17.4606C16.0544 17.8537 15.8245 18.2448 15.6004 18.6408C15.4054 18.9871 15.1891 19.3522 15.131 19.753C15.0927 20.0224 15.1947 20.2999 15.371 20.5014C15.5139 20.6649 15.9089 20.9603 16.1308 20.7785C16.2246 20.6983 16.3584 20.4955 16.4258 20.3888Z" fill="#11336E"/>
<path d="M16.8558 20.3911C17.1692 19.8996 17.2976 19.316 17.5111 18.7786C17.8297 17.9776 18.1425 17.1717 18.4249 16.3558C18.6503 15.7009 18.6335 14.9896 18.481 14.3217C18.3398 13.6997 18.1214 13.1598 17.7186 12.6639C17.5346 12.4382 17.3055 12.2369 17.1026 12.028C16.5166 11.4233 15.9307 10.8186 15.3447 10.2138C15.2528 10.118 13.7227 8.69398 13.7346 8.68265C13.7248 8.69423 12.2091 7.25495 12.1097 7.16882C11.4706 6.62149 10.8317 6.07206 10.1925 5.52472C9.97258 5.33509 9.75796 5.11848 9.521 4.94806C9.00199 4.5785 8.45253 4.39433 7.82768 4.29465C7.15527 4.18719 6.44749 4.21782 5.81447 4.48879C5.02597 4.82624 4.2483 5.19684 3.47662 5.57027C2.95776 5.82082 2.38964 5.98907 1.92454 6.33732C1.58437 6.59211 1.17514 7.14448 1.60642 7.52486C2.25689 8.10114 3.16401 7.45711 3.74269 7.07563C4.12236 6.82554 4.49653 6.56842 4.8707 6.31131C5.21719 6.07426 5.56576 5.83747 5.91225 5.60042C6.99778 4.85653 8.4952 4.65636 9.54959 5.5949C10.0359 6.02641 13.3521 9.09806 13.3521 9.09806C13.3521 9.09806 16.6198 12.2234 17.0798 12.6815C18.0789 13.6772 17.9851 15.195 17.3206 16.3351C17.1087 16.6985 16.8967 17.0641 16.6867 17.4299C16.4587 17.8233 16.2286 18.2164 16.0063 18.6147C15.6664 19.2221 15.0892 20.1771 15.7056 20.7918C16.1064 21.1983 16.6276 20.7505 16.8558 20.3911Z" fill="url(#paint2_radial_3570_175)"/>
<path d="M20.7702 15.1368C20.8616 15.5384 20.8419 15.8822 20.7039 16.2099C21.1084 16.4788 21.2333 16.9353 21.2299 17.4085C21.344 17.4241 21.4129 17.4472 21.4129 17.4472C21.4332 17.4538 21.5567 17.3368 21.573 17.3239C21.7911 17.1566 21.9436 16.9368 22.237 16.9696C22.2453 16.9705 22.2536 16.9715 22.2604 16.9681C22.2671 16.9646 22.2723 16.9568 22.2753 16.9486C22.3221 16.8565 22.3689 16.7644 22.3995 16.6661C22.492 16.367 22.3553 16.0981 22.2331 15.8308C22.1359 15.6197 22.0206 15.4191 21.8959 15.2259C21.5914 14.7544 21.2341 14.3191 20.8621 13.9012C19.9543 12.8824 18.9472 11.9537 17.9386 11.0376C15.6987 9.00477 14.8 9.48841 14.3517 9.51799C13.9013 9.54732 13.5642 9.40324 13.5642 9.40324L13.2455 9.1042L12.9269 8.80515C12.9269 8.80515 12.7618 8.47338 12.7607 8.02093C12.7596 7.56847 13.1785 6.63287 11.0113 4.5195C10.029 3.55979 9.03374 2.60278 7.95177 1.7544C7.51002 1.40888 7.05197 1.0763 6.56127 0.805669C6.35942 0.694632 6.15216 0.593571 5.93619 0.51271C5.72828 0.434931 5.48301 0.316615 5.26836 0.437652C5.17101 0.494047 5.01389 0.592186 4.94815 0.684188C4.75534 0.958594 4.6688 1.2435 4.5273 1.54736C4.46773 1.67619 4.50402 1.7612 4.50889 1.89768C4.51065 1.93612 4.49583 2.32722 4.47089 2.32426C4.66373 2.35141 4.85564 2.35084 5.05106 2.37404C5.11966 2.38219 5.18079 2.40007 5.23934 2.42188C5.68895 1.9911 6.14864 1.84819 6.75894 1.94615C6.75894 1.94615 7.36034 1.83494 9.3636 3.69525C11.3669 5.55556 12.0878 7.13618 11.6754 7.92815C11.6618 7.95414 11.6458 7.98198 11.6301 8.00772C11.6833 8.0926 11.7227 8.18648 11.7433 8.29723C11.8381 8.79479 11.7649 9.0388 12.2103 9.3359C12.5931 9.5916 13.0198 9.7803 13.3892 10.0599C13.7219 10.3118 13.9577 10.5988 14.0973 10.9148C14.241 10.7875 14.3801 10.6809 14.5142 10.5991C15.2717 10.1327 16.8871 10.7492 18.8641 12.6361C20.8407 14.5251 20.7702 15.1368 20.7702 15.1368Z" fill="url(#paint3_linear_3570_175)"/>
<path d="M21.2099 17.7735L22.2515 16.9734C22.1934 15.5629 19.9732 13.3986 17.7333 11.3658C15.4933 9.33295 14.5947 9.8166 14.1463 9.84617C13.6959 9.87551 13.3588 9.73142 13.3588 9.73142L13.0402 9.43238L12.7215 9.13333C12.7215 9.13333 12.5564 8.80156 12.5553 8.34911C12.5542 7.89665 12.9731 6.96105 10.806 4.84768C8.63697 2.73197 6.344 0.648258 4.94207 0.683517L4.21889 1.78472C4.21889 1.78472 4.52508 2.52612 3.96028 3.32335C3.39547 4.12058 1.9231 5.92067 3.60724 8.2846C5.29347 10.6488 7.90473 11.8274 10.4277 10.288C10.4277 10.288 11.4719 9.59016 11.9483 9.96316L12.267 10.2622L12.5857 10.5612C12.9872 11.0145 12.3658 12.1108 12.3658 12.1108C11.0111 14.7489 12.3554 17.2933 14.8107 18.8272C17.2659 20.361 18.9507 18.7603 19.7034 18.1383C20.4541 17.516 21.2099 17.7735 21.2099 17.7735ZM8.3515 10.4619C6.79001 10.7755 5.19182 9.44537 4.58969 8.7283C3.98756 8.01122 2.55864 6.81797 3.65076 4.81133C4.74288 2.80469 5.3621 2.08188 6.5515 2.27408C6.5515 2.27408 7.1529 2.16287 9.15616 4.02318C11.1594 5.8835 11.8804 7.46412 11.468 8.25609C11.0579 9.04621 9.91066 10.1501 8.3515 10.4619ZM14.3042 17.873C13.5523 17.3165 12.1258 15.8007 12.3314 14.2112C12.537 12.6217 13.5512 11.3958 14.3086 10.9294C15.0661 10.4629 16.6815 11.0795 18.6584 12.9664C20.6374 14.8536 20.5669 15.4653 20.5669 15.4653C20.8375 16.6484 20.1632 17.3201 18.2503 18.5518C16.3352 19.7833 15.0561 18.4294 14.3042 17.873Z" fill="url(#paint4_radial_3570_175)"/>
<path d="M8.62605 10.2271C7.06457 10.5407 5.46637 9.21056 4.86425 8.49349C4.26212 7.77641 2.8332 6.58315 3.92532 4.57651C4.44566 3.62111 4.85718 2.9607 5.2752 2.54739C4.75672 2.91904 4.28219 3.64841 3.64867 4.81123C2.55655 6.81787 3.98548 8.01113 4.5876 8.72821C5.18973 9.44528 6.78792 10.7754 8.34941 10.4618C9.29112 10.2721 10.0812 9.7968 10.6493 9.2739C10.1137 9.70085 9.42509 10.0672 8.62605 10.2271Z" fill="url(#paint5_linear_3570_175)"/>
<path opacity="0.59" d="M8.35169 10.4619C6.7902 10.7755 5.19201 9.44537 4.58988 8.72829C3.98775 8.01122 2.55883 6.81796 3.65095 4.81132C4.74307 2.80468 5.36229 2.08187 6.55169 2.27408C6.55169 2.27408 7.15309 2.16287 9.15635 4.02318C11.1596 5.88349 11.8806 7.46411 11.4682 8.25608C11.0558 9.04805 9.91085 10.1501 8.35169 10.4619Z" fill="url(#paint6_linear_3570_175)"/>
<path d="M18.5655 18.2071C16.6502 19.4407 15.3713 18.0847 14.6194 17.5283C13.8675 16.9718 12.441 15.456 12.6467 13.8665C12.7762 12.8647 13.228 12.0073 13.7332 11.392C13.11 12.0061 12.4879 13.0025 12.3316 14.2114C12.126 15.8009 13.5525 17.3166 14.3044 17.8731C15.0563 18.4296 16.3352 19.7855 18.2505 18.5519C19.2252 17.9244 19.8748 17.4431 20.2455 16.9668C19.86 17.3372 19.3073 17.7303 18.5655 18.2071Z" fill="url(#paint7_linear_3570_175)"/>
<path d="M13.7333 11.392C13.7333 11.392 13.6948 11.4321 13.6202 11.5103C13.5497 11.589 13.4454 11.704 13.3252 11.8638C13.0856 12.1773 12.7812 12.6635 12.5615 13.3064C12.4538 13.627 12.3646 13.988 12.3419 14.374C12.319 14.762 12.391 15.1676 12.5422 15.5636C12.6915 15.9572 12.914 16.3383 13.1821 16.6908C13.4504 17.0412 13.7562 17.3769 14.1016 17.6642C14.2719 17.8098 14.4565 17.9421 14.6294 18.0837C14.8047 18.2234 14.9823 18.3613 15.1637 18.4848C15.5286 18.732 15.9279 18.9196 16.3407 18.9941C16.7538 19.0665 17.1669 19.0136 17.528 18.8845C17.8898 18.7491 18.2031 18.5612 18.4867 18.374C19.0556 18.0041 19.5162 17.6765 19.8111 17.4121C19.9595 17.2811 20.0677 17.1687 20.1382 17.09C20.2086 17.0113 20.2435 16.9666 20.2435 16.9666C20.2435 16.9666 20.2107 17.0115 20.14 17.0923C20.0713 17.1733 19.9649 17.2881 19.8184 17.4215C19.5251 17.6903 19.0752 18.034 18.5061 18.406C18.2264 18.5958 17.9082 18.7895 17.5417 18.9286C17.176 19.0614 16.7515 19.1214 16.3301 19.048C15.9085 18.9767 15.499 18.7858 15.1279 18.5379C14.9423 18.4139 14.7626 18.2758 14.5871 18.1381C14.4142 17.9966 14.2291 17.8684 14.0549 17.7203C13.7082 17.4264 13.4007 17.0862 13.1311 16.7293C12.8615 16.3724 12.6418 15.9853 12.4914 15.583C12.3407 15.1829 12.2681 14.7644 12.2957 14.3727C12.3232 13.981 12.4148 13.6181 12.5248 13.2957C12.7494 12.647 13.0718 12.1693 13.3153 11.8584C13.4373 11.7009 13.5434 11.5882 13.616 11.5098C13.6948 11.4321 13.7333 11.392 13.7333 11.392Z" fill="white"/>
<path d="M5.27548 2.5475C5.27548 2.5475 5.2315 2.58051 5.15187 2.6475C5.07223 2.71449 4.96268 2.8204 4.83776 2.96696C4.58375 3.25958 4.28183 3.7249 3.95584 4.30415C3.79297 4.59273 3.61232 4.9068 3.47159 5.25747C3.32903 5.6058 3.25584 6.00909 3.28942 6.41868C3.31859 6.82987 3.48123 7.23568 3.71219 7.59863C3.94034 7.96762 4.24613 8.28637 4.54003 8.61645C4.82204 8.95786 5.13838 9.25875 5.4844 9.52282C5.82625 9.78639 6.19154 10.0124 6.56613 10.1779C6.94046 10.3455 7.32824 10.4532 7.70285 10.4764C8.07721 10.5018 8.43291 10.4357 8.74769 10.3414C9.38141 10.1534 9.86401 9.87089 10.1792 9.64924C10.3378 9.53854 10.4546 9.44199 10.5343 9.375C10.6118 9.30776 10.6542 9.27032 10.6542 9.27032C10.6542 9.27032 10.6139 9.308 10.5361 9.37734C10.4586 9.44458 10.3414 9.54322 10.1865 9.6586C9.87499 9.88494 9.39872 10.1851 8.76034 10.3769C8.44324 10.473 8.08471 10.5451 7.70178 10.5209C7.32069 10.499 6.92642 10.3927 6.54585 10.2244C6.16504 10.0581 5.79559 9.83159 5.44725 9.56937C5.10098 9.3074 4.77291 8.99875 4.48857 8.65918C4.19883 8.3296 3.89196 8.00223 3.66248 7.62671C3.43043 7.25513 3.26463 6.84045 3.23903 6.41694C3.20877 5.99713 3.28478 5.5878 3.43458 5.23184C3.4624 5.13958 3.51209 5.05842 3.54956 4.97368C3.59094 4.89152 3.62633 4.80653 3.67345 4.72931C3.75962 4.57178 3.84504 4.42053 3.9274 4.27741C4.25754 3.69865 4.57327 3.24135 4.83326 2.95156C4.96209 2.80759 5.07373 2.70193 5.15519 2.63728C5.22967 2.57817 5.27548 2.5475 5.27548 2.5475Z" fill="white"/>
<path d="M12.5516 8.34671C12.5516 8.34671 12.5505 8.30199 12.5563 8.21773C12.5621 8.13348 12.5766 8.01202 12.576 7.85693C12.5754 7.70185 12.5581 7.51078 12.4962 7.30382C12.4388 7.09526 12.3477 6.86784 12.2171 6.63573C12.0933 6.40017 11.9254 6.16362 11.7433 5.92115C11.6456 5.80336 11.5486 5.67929 11.4446 5.56077C11.3362 5.44384 11.2288 5.31853 11.1121 5.20062C10.9954 5.0827 10.8748 4.9622 10.7542 4.8417C10.6312 4.72304 10.5064 4.60205 10.3796 4.4808C10.1259 4.23832 9.86801 3.99534 9.60782 3.7542C9.09002 3.26799 8.56265 2.79127 8.05011 2.36727C7.53756 1.94327 7.03776 1.57175 6.58364 1.29485C6.47211 1.22214 6.35883 1.16409 6.25412 1.10494C6.1499 1.0416 6.04553 0.997351 5.94764 0.95175C5.89974 0.929072 5.85184 0.906395 5.80576 0.886058C5.75919 0.86991 5.71287 0.851668 5.66837 0.835766C5.58147 0.80421 5.50105 0.7713 5.42463 0.757978C5.3487 0.740467 5.28109 0.723944 5.22363 0.71075C5.16334 0.703591 5.11295 0.701854 5.07112 0.69901C4.98747 0.693324 4.94381 0.688139 4.94381 0.688139C4.94381 0.688139 4.98772 0.691229 5.07162 0.694822C5.11345 0.697666 5.16384 0.699402 5.22437 0.704468C5.28417 0.715815 5.35202 0.730244 5.4282 0.745661C5.50487 0.756889 5.58554 0.787704 5.67477 0.817413C5.71926 0.833315 5.76608 0.847369 5.81473 0.863764C5.86106 0.882007 5.90896 0.904684 5.95919 0.925514C6.16012 1.00884 6.37628 1.12369 6.6045 1.26122C7.06327 1.53443 7.56748 1.90435 8.08468 2.32466C8.60188 2.74496 9.13598 3.21824 9.65819 3.70285C9.91789 3.94817 10.1734 4.193 10.4248 4.43733C10.5493 4.56042 10.6741 4.68142 10.7968 4.80217C10.9172 4.92476 11.0355 5.04711 11.1522 5.16503C11.2686 5.28504 11.3737 5.41219 11.4818 5.53121C11.5876 5.65208 11.6823 5.778 11.7798 5.89788C11.9614 6.14453 12.1291 6.38318 12.2524 6.62293C12.3827 6.85713 12.4709 7.09058 12.5237 7.30284C12.5786 7.51535 12.5939 7.70616 12.59 7.86285C12.5862 8.01954 12.5697 8.14075 12.5618 8.22476C12.5526 8.30224 12.5516 8.34671 12.5516 8.34671Z" fill="white"/>
<path d="M22.2515 16.9738C22.2515 16.9738 22.244 16.9304 22.233 16.8463C22.2273 16.8052 22.2208 16.7535 22.2109 16.695C22.1924 16.6376 22.1731 16.5694 22.1501 16.4966C22.1318 16.4201 22.0945 16.3435 22.0564 16.2562C22.0382 16.2137 22.0183 16.1688 21.9985 16.1219C21.9765 16.0768 21.9503 16.0312 21.9243 15.9835C21.8724 15.8882 21.8191 15.7863 21.7511 15.6848C21.6851 15.5835 21.6204 15.4717 21.5401 15.3667C21.2357 14.9292 20.8328 14.4523 20.3783 13.9652C19.9239 13.478 19.4159 12.9802 18.8981 12.494C18.6405 12.2489 18.3805 12.0057 18.1242 11.7671C17.9951 11.6477 17.8677 11.5307 17.7422 11.416C17.6143 11.3031 17.4865 11.1902 17.3625 11.08C17.2363 10.9715 17.1067 10.8733 16.9838 10.7717C16.8584 10.6739 16.7278 10.5841 16.6056 10.4953C16.3515 10.3271 16.1058 10.1768 15.8637 10.0674C15.6244 9.95191 15.3931 9.87561 15.1833 9.83158C14.9738 9.78546 14.7828 9.77765 14.6297 9.78919C14.4747 9.79839 14.354 9.82017 14.2725 9.83173C14.1911 9.84329 14.1464 9.84648 14.1464 9.84648C14.1464 9.84648 14.1911 9.84329 14.2728 9.82963C14.3545 9.81598 14.4757 9.79002 14.6291 9.77638C14.7848 9.7609 14.9744 9.76218 15.1886 9.8046C15.401 9.84469 15.6393 9.91546 15.8806 10.0312C16.125 10.1388 16.3749 10.2895 16.6313 10.4559C16.7557 10.5449 16.8865 10.6327 17.014 10.7306C17.1392 10.8305 17.2709 10.9289 17.3992 11.0376C17.5255 11.146 17.6533 11.2589 17.7835 11.3699C17.9111 11.4849 18.0405 11.6022 18.1699 11.7195C18.4286 11.9562 18.6911 12.1955 18.9487 12.4405C19.4637 12.9328 19.9668 13.4364 20.4186 13.9275C20.8705 14.4186 21.2686 14.9012 21.5724 15.3429C21.7234 15.5626 21.8523 15.7732 21.9471 15.9692C21.9707 16.0188 21.9969 16.0644 22.019 16.1094C22.0387 16.1564 22.0563 16.2031 22.0745 16.2456C22.1105 16.3327 22.1455 16.4111 22.1615 16.4895C22.1821 16.5642 22.2014 16.6323 22.2176 16.6915C22.2273 16.7521 22.2317 16.8036 22.2374 16.8447C22.2461 16.9306 22.2515 16.9738 22.2515 16.9738Z" fill="white"/>
<path opacity="0.59" d="M12.3313 14.2115C12.1256 15.801 13.5521 17.3168 14.304 17.8732C15.0559 18.4297 16.3348 19.7857 18.2501 18.5521C20.1654 17.3185 20.8373 16.6487 20.5667 15.4655C20.5667 15.4655 20.6373 14.8538 18.6583 12.9667C16.6793 11.0795 15.0638 10.4629 14.3085 10.9296C13.5531 11.3963 12.5369 12.622 12.3313 14.2115Z" fill="url(#paint8_linear_3570_175)"/>
<path d="M9.15632 4.02343C7.15306 2.16312 6.55165 2.27433 6.55165 2.27433C5.36225 2.08212 4.74096 2.80469 3.65092 4.81158C3.38676 5.29624 3.27142 5.73487 3.2561 6.13016L10.0895 4.97094C9.81388 4.66427 9.50576 4.34737 9.15632 4.02343Z" fill="url(#paint9_linear_3570_175)"/>
<path d="M18.6584 12.9667C16.6794 11.0795 15.064 10.463 14.3086 10.9296C13.5512 11.3961 12.537 12.622 12.3314 14.2115C12.3144 14.3369 12.3099 14.4638 12.3139 14.5896L19.102 13.4037C18.9667 13.2645 18.8215 13.1198 18.6584 12.9667Z" fill="url(#paint10_linear_3570_175)"/>
</g>
<defs>
<linearGradient id="paint0_linear_3570_175" x1="5.09135" y1="2.6535" x2="9.70683" y2="4.5625" gradientUnits="userSpaceOnUse">
<stop stop-color="#0056F5"/>
<stop offset="0.1258" stop-color="#034FDB"/>
<stop offset="0.4233" stop-color="#093FA2"/>
<stop offset="0.6788" stop-color="#0D3479"/>
<stop offset="0.8793" stop-color="#102D5F"/>
<stop offset="1" stop-color="#112A56"/>
</linearGradient>
<linearGradient id="paint1_linear_3570_175" x1="17.0142" y1="13.8838" x2="21.3003" y2="15.6566" gradientUnits="userSpaceOnUse">
<stop stop-color="#0056F5"/>
<stop offset="0.1258" stop-color="#034FDB"/>
<stop offset="0.4233" stop-color="#093FA2"/>
<stop offset="0.6788" stop-color="#0D3479"/>
<stop offset="0.8793" stop-color="#102D5F"/>
<stop offset="1" stop-color="#112A56"/>
</linearGradient>
<radialGradient id="paint2_radial_3570_175" cx="0" cy="0" r="1" gradientUnits="userSpaceOnUse" gradientTransform="translate(9.97137 11.744) rotate(22.6885) scale(10.1354 10.1983)">
<stop stop-color="#0041BB"/>
<stop offset="0.4454" stop-color="#0141B9"/>
<stop offset="0.6448" stop-color="#0340B2"/>
<stop offset="0.7953" stop-color="#073EA5"/>
<stop offset="0.9203" stop-color="#0C3C93"/>
<stop offset="1" stop-color="#113A83"/>
</radialGradient>
<linearGradient id="paint3_linear_3570_175" x1="4.27783" y1="-0.164058" x2="22.5574" y2="17.5534" gradientUnits="userSpaceOnUse">
<stop stop-color="#1547F5"/>
<stop offset="0.1762" stop-color="#0840A4"/>
<stop offset="0.2732" stop-color="#0942A7"/>
<stop offset="0.3422" stop-color="#0B47B0"/>
<stop offset="0.4025" stop-color="#0F50C0"/>
<stop offset="0.4575" stop-color="#145CD6"/>
<stop offset="0.509" stop-color="#1B6CF2"/>
<stop offset="0.5123" stop-color="#1C6DF4"/>
<stop offset="0.5611" stop-color="#1967EA"/>
<stop offset="0.6436" stop-color="#1358D0"/>
<stop offset="0.7461" stop-color="#0840A6"/>
<stop offset="0.8046" stop-color="#0940AA"/>
<stop offset="0.8611" stop-color="#0B41B6"/>
<stop offset="0.917" stop-color="#0E43C9"/>
<stop offset="0.972" stop-color="#1246E4"/>
<stop offset="1" stop-color="#1547F5"/>
</linearGradient>
<radialGradient id="paint4_radial_3570_175" cx="0" cy="0" r="1" gradientUnits="userSpaceOnUse" gradientTransform="translate(11.6996 10.8914) rotate(132.612) scale(12.9205 12.8913)">
<stop stop-color="#0240B3"/>
<stop offset="0.4626" stop-color="#023FB1"/>
<stop offset="0.6698" stop-color="#023DAA"/>
<stop offset="0.826" stop-color="#02389D"/>
<stop offset="0.956" stop-color="#02328B"/>
<stop offset="1" stop-color="#022F83"/>
</radialGradient>
<linearGradient id="paint5_linear_3570_175" x1="4.17634" y1="3.18044" x2="8.49052" y2="10.6597" gradientUnits="userSpaceOnUse">
<stop stop-color="#0056F5"/>
<stop offset="0.1258" stop-color="#034FDB"/>
<stop offset="0.4233" stop-color="#093FA2"/>
<stop offset="0.6788" stop-color="#0D3479"/>
<stop offset="0.8793" stop-color="#102D5F"/>
<stop offset="1" stop-color="#112A56"/>
</linearGradient>
<linearGradient id="paint6_linear_3570_175" x1="9.4649" y1="4.07547" x2="4.17871" y2="10.3553" gradientUnits="userSpaceOnUse">
<stop/>
<stop offset="0.9624"/>
</linearGradient>
<linearGradient id="paint7_linear_3570_175" x1="13.6226" y1="11.4564" x2="17.8513" y2="18.7875" gradientUnits="userSpaceOnUse">
<stop stop-color="#0056F5"/>
<stop offset="0.1258" stop-color="#034FDB"/>
<stop offset="0.4233" stop-color="#093FA2"/>
<stop offset="0.6788" stop-color="#0D3479"/>
<stop offset="0.8793" stop-color="#102D5F"/>
<stop offset="1" stop-color="#112A56"/>
</linearGradient>
<linearGradient id="paint8_linear_3570_175" x1="18.8241" y1="11.9547" x2="13.538" y2="18.2344" gradientUnits="userSpaceOnUse">
<stop/>
<stop offset="0.9624"/>
</linearGradient>
<linearGradient id="paint9_linear_3570_175" x1="5.95989" y1="1.11035" x2="6.78313" y2="6.12469" gradientUnits="userSpaceOnUse">
<stop stop-color="white"/>
<stop offset="0.9637" stop-color="white" stop-opacity="0"/>
</linearGradient>
<linearGradient id="paint10_linear_3570_175" x1="15.0538" y1="9.09016" x2="15.8564" y2="14.9468" gradientUnits="userSpaceOnUse">
<stop stop-color="white"/>
<stop offset="0.9637" stop-color="white" stop-opacity="0"/>
</linearGradient>
<clipPath id="clip0_3570_175">
<rect width="21.9714" height="19.1814" fill="white" transform="translate(2.26172) rotate(6.77223)"/>
</clipPath>
</defs>
</svg>
