<svg width="109" height="84" viewBox="0 0 109 84" fill="none" xmlns="http://www.w3.org/2000/svg">
<g clip-path="url(#clip0_3563_1390)">
<path d="M6.95431 21.3115C6.96046 21.3115 5.85983 24.1946 4.54398 28.733C3.22198 33.2714 1.73397 39.4895 0.860841 46.0253C-0.0307371 52.5489 -0.295136 59.3901 0.375085 64.9241C0.700972 67.6911 1.25436 70.1283 2.00452 72.0096C2.74238 73.897 3.71389 75.1981 4.61777 75.7662C4.53168 74.5201 4.28573 72.9197 4.08897 70.8857C3.87991 68.8578 3.69544 66.4267 3.58476 63.7147C3.35726 58.2906 3.46179 51.7609 3.89835 45.4634C4.71 32.8499 6.95431 21.3054 6.95431 21.3115Z" fill="url(#paint0_linear_3563_1390)"/>
<path d="M11.0249 19.7783C11.0311 19.7783 9.86279 22.6003 8.44241 27.0593C7.02204 31.5122 5.3926 37.6265 4.37805 44.0706C3.34505 50.5087 2.93308 57.2705 3.48647 62.7801C3.75702 65.5349 4.26122 67.972 4.97448 69.8656C5.67545 71.7652 6.62851 73.0968 7.52009 73.7076C7.4586 72.4738 7.24955 70.8795 7.08353 68.8577C6.91751 66.842 6.77609 64.4293 6.7269 61.7356C6.61007 56.3542 6.84987 49.8857 7.42171 43.6492C8.5162 31.1762 11.0311 19.7722 11.0249 19.7783Z" fill="url(#paint1_linear_3563_1390)"/>
<path d="M12.7339 24.6343C12.7401 24.6343 11.8485 26.8332 10.7786 30.2966C9.70872 33.7599 8.47896 38.4999 7.70421 43.4842C6.92331 48.4624 6.60972 53.6788 7.02169 57.9423C7.11392 59.0112 7.28609 60.013 7.44596 60.9414C7.489 61.1735 7.52589 61.3995 7.58123 61.6255C7.63657 61.8454 7.69806 62.0592 7.7534 62.273C7.87022 62.6945 7.98705 63.0915 8.11003 63.4702C8.23915 63.8428 8.34983 64.2032 8.4974 64.5208C8.65112 64.8385 8.80484 65.1378 8.95856 65.4065C9.27215 65.944 9.59189 66.3716 9.91163 66.677C10.0469 66.1578 10.1391 65.5531 10.1883 64.8873C10.2129 64.5575 10.2314 64.2032 10.2314 63.8367C10.2437 63.4702 10.2744 63.0732 10.2806 62.6639C10.2929 62.2547 10.299 61.8332 10.299 61.3995C10.299 61.1796 10.2929 60.9598 10.2929 60.7338C10.2929 60.5077 10.299 60.2695 10.3052 60.0374C10.3297 59.0906 10.299 58.1011 10.3113 57.0566C10.3236 52.8725 10.4466 47.9065 10.7602 43.1055C11.0615 38.3044 11.5288 33.6866 11.953 30.2721C12.4019 26.8393 12.7401 24.6343 12.7339 24.6343Z" fill="url(#paint2_linear_3563_1390)"/>
<path d="M25.7941 11.9048C25.8003 11.9048 24.5766 14.1709 22.9841 17.7809C21.3916 21.3908 19.467 26.3568 17.9974 31.6648C16.5156 36.9606 15.4948 42.5924 15.3842 47.3324C15.3288 49.7023 15.4887 51.8402 15.8822 53.5749C16.2696 55.3097 16.9214 56.6352 17.6531 57.3315C17.8683 56.2564 17.9851 54.8454 18.1573 53.0985C18.3172 51.3454 18.5262 49.2748 18.7906 46.9964C19.3133 42.4275 20.1311 36.9912 21.121 31.7809C23.064 21.3664 25.7941 11.8987 25.7941 11.9048Z" fill="url(#paint3_linear_3563_1390)"/>
<path d="M34.6667 10.5552C34.6728 10.5552 32.9819 12.4732 30.7622 15.6738C28.5363 18.8623 25.8185 23.3702 23.6726 28.3484C21.502 33.3082 19.9587 38.7323 19.559 43.3501C19.1225 47.974 19.9034 51.6939 21.17 53.2332C21.8648 51.2053 22.1538 47.6686 22.9778 43.3074C23.7771 38.9522 25.0622 33.803 26.7162 28.9164C28.3457 24.0238 30.301 19.4121 31.8935 16.0464C33.4738 12.6808 34.6728 10.5552 34.6667 10.5552Z" fill="url(#paint4_linear_3563_1390)"/>
<path d="M23.4331 18.2148C23.4393 18.2148 21.9451 20.3222 20.0328 23.7794C18.1144 27.2306 15.8209 32.056 14.1115 37.2969C12.3776 42.5255 11.2831 48.1572 11.2339 52.8484C11.1539 57.5456 12.1747 61.1983 13.5151 62.5909C14.0377 60.4592 14.0562 56.8675 14.5358 52.378C14.9908 47.9068 15.8516 42.5866 17.0937 37.4923C18.3112 32.3981 19.8607 27.5543 21.1519 24.0115C22.4432 20.4688 23.4393 18.2148 23.4331 18.2148Z" fill="url(#paint5_linear_3563_1390)"/>
<path d="M50.0019 2.44336C50.008 2.44947 47.6592 4.3369 44.4187 7.59257C41.1783 10.8421 37.0894 15.5149 33.5538 20.8535C29.9998 26.1676 27.0237 32.1537 25.4865 37.4678C24.7118 40.1188 24.2875 42.5865 24.2076 44.651C24.1031 46.7156 24.4289 48.3709 24.8901 49.4093C25.4251 48.2793 25.8555 46.6973 26.5011 44.7671C27.1221 42.8369 27.8784 40.5585 28.8254 38.0725C30.7007 33.1065 33.3939 27.3404 36.4437 21.9896C39.4689 16.6327 42.8262 11.7095 45.4763 8.17285C48.1142 4.6301 50.008 2.44336 50.0019 2.44336Z" fill="url(#paint6_linear_3563_1390)"/>
<path d="M107.992 22.3746C107.992 22.3807 106.19 21.4644 103.257 20.5054C100.33 19.5465 96.2535 18.5997 91.9062 18.337C91.6357 18.3187 91.359 18.3004 91.0885 18.2882C90.8179 18.2821 90.5412 18.2759 90.2707 18.2698C89.7234 18.2637 89.17 18.2576 88.6228 18.2576C88.0694 18.2515 87.5221 18.2821 86.9749 18.3126C86.4277 18.3492 85.8866 18.3859 85.3455 18.4287C83.1872 18.6363 81.0966 18.9967 79.2151 19.5098C78.7416 19.632 78.2866 19.7602 77.8439 19.8946C77.4012 20.0412 76.9769 20.1939 76.565 20.3527C75.7472 20.6643 74.9847 20.9697 74.3083 21.3056C72.9679 22.002 71.9411 22.6922 71.3262 23.3274C72.2116 23.3763 73.4168 23.2114 74.8433 22.9182C75.5627 22.7838 76.3498 22.6494 77.1737 22.4784C77.5857 22.3929 78.0161 22.3074 78.4526 22.2096C78.8954 22.1302 79.3442 22.0508 79.8054 21.9714C83.4824 21.2751 87.8296 20.7192 92.0231 20.6398C96.2104 20.5421 100.219 20.9025 103.165 21.3789C106.11 21.8431 107.992 22.3807 107.992 22.3746Z" fill="url(#paint7_linear_3563_1390)"/>
<path d="M108.834 17.0237C108.834 17.0298 106.504 16.3946 102.882 15.8326C99.2664 15.2646 94.3597 14.8309 89.3484 15.1241C84.3433 15.3928 79.2459 16.4434 75.4336 18.2331C73.5275 19.1188 71.9473 20.1694 70.8343 21.2445C70.5638 21.5194 70.2932 21.7698 70.0842 22.0447C69.869 22.3195 69.6784 22.5822 69.5123 22.8326C69.1926 23.3457 69.002 23.8527 68.8975 24.2742C69.3771 24.1459 69.869 23.926 70.4347 23.6817C70.7237 23.5595 71.0188 23.4312 71.3262 23.2846C71.6275 23.138 71.978 23.0036 72.31 22.8448C73.6812 22.2279 75.3107 21.5255 77.1799 20.8597C80.8999 19.5159 85.5853 18.3675 90.2646 17.7078C94.9377 17.0298 99.5862 16.816 103.06 16.8283C106.54 16.8344 108.834 17.0237 108.834 17.0237Z" fill="url(#paint8_linear_3563_1390)"/>
<path d="M103.995 37.4373C104.001 37.4495 95.8477 33.2287 86.1879 30.2663C81.3796 28.7636 76.233 27.5542 71.8243 26.8945C70.7237 26.7235 69.6661 26.6075 68.6761 26.4914C67.6862 26.3814 66.7454 26.3326 65.903 26.2776C65.4787 26.2532 65.0729 26.2471 64.6855 26.2471C64.4949 26.2471 64.3043 26.2532 64.1199 26.2593C63.9415 26.2593 63.7632 26.2593 63.5911 26.2593C62.9085 26.2715 62.306 26.3387 61.8018 26.4547C62.2322 26.7724 62.7979 27.09 63.4742 27.4137C63.6464 27.4931 63.8186 27.5787 64.003 27.6581C64.1813 27.7314 64.372 27.8047 64.5626 27.878C64.9499 28.0246 65.3558 28.1712 65.7923 28.3178C66.6593 28.6232 67.6001 28.8736 68.6023 29.1485C69.6107 29.4294 70.6745 29.6738 71.7813 29.9303C76.2207 30.9504 81.3304 31.9521 86.1142 33.0089C95.6879 35.0795 103.989 37.4434 103.995 37.4373Z" fill="url(#paint9_linear_3563_1390)"/>
<path d="M92.0659 36.9302C92.072 36.9424 83.7527 33.7111 74.0868 31.9459C69.2722 31.0358 64.1564 30.4677 59.8092 30.3577C58.7209 30.3272 57.6817 30.3394 56.7102 30.3455C55.7387 30.3577 54.8225 30.431 53.9924 30.4799C53.5743 30.5104 53.1808 30.5532 52.7996 30.6021C52.609 30.6265 52.4306 30.6509 52.2523 30.6815C52.074 30.6998 51.908 30.7242 51.742 30.7487C51.0779 30.8464 50.4999 30.9869 50.0142 31.1701C50.463 31.4328 51.0349 31.6771 51.7174 31.9153C51.8896 31.9764 52.0679 32.0314 52.2523 32.0925C52.4368 32.1413 52.6213 32.1902 52.818 32.2391C53.2054 32.3368 53.6174 32.4284 54.0478 32.52C54.9148 32.7155 55.8555 32.8499 56.8578 32.9965C57.86 33.1492 58.9176 33.2591 60.0244 33.3813C64.4331 33.8394 69.4998 34.2059 74.2528 34.6823C83.7588 35.568 92.0536 36.9424 92.0659 36.9302Z" fill="url(#paint10_linear_3563_1390)"/>
<path d="M82.3511 45.4938C82.3634 45.5182 72.8266 42.116 61.5497 40.7355C55.9481 40.0209 49.9776 39.7949 44.9049 40.0514C44.2715 40.0819 43.6505 40.1247 43.0418 40.1736C42.4392 40.2102 41.8489 40.253 41.2832 40.3079C40.7114 40.3629 40.1641 40.424 39.6292 40.4973C39.1004 40.5584 38.59 40.6134 38.1043 40.6867C36.1551 41.0104 34.581 41.2914 33.4619 41.7678C34.5134 42.1832 36.1735 42.5558 38.1904 42.7085C38.6946 42.7512 39.2295 42.8062 39.7767 42.8428C40.324 42.8673 40.8897 42.8917 41.48 42.9161C42.0703 42.9406 42.6667 42.965 43.2939 42.9894C43.9087 42.9955 44.5421 43.0078 45.1877 43.0139C50.3527 43.0872 56.2802 43.1116 61.8141 43.4048C72.8942 43.9118 82.3511 45.5182 82.3511 45.4938Z" fill="url(#paint11_linear_3563_1390)"/>
<path d="M62.4782 3.61621C62.4843 3.62232 60.2646 5.0211 57.1164 7.4766C53.9682 9.9321 49.9223 13.4871 46.2515 17.6406C42.5622 21.7759 39.2603 26.522 37.2865 30.9016C36.2965 33.0883 35.6325 35.1773 35.3619 36.9792C35.0852 38.7811 35.2389 40.296 35.6632 41.2611C36.2473 40.3387 36.8438 39.056 37.637 37.4984C38.4179 35.9408 39.3832 34.0961 40.5208 32.0988C42.7835 28.0979 45.7903 23.4801 48.9815 19.2105C55.3148 10.6223 62.4843 3.61011 62.4782 3.61621Z" fill="url(#paint12_linear_3563_1390)"/>
<path d="M95.3616 7.72066C95.3616 7.72676 93.1542 7.65957 89.8953 8.10547C86.6426 8.54526 82.363 9.5409 78.3171 11.294C78.065 11.4039 77.8006 11.5016 77.5546 11.6238C77.3087 11.746 77.0627 11.862 76.8168 11.9842C76.3249 12.2285 75.833 12.4789 75.3472 12.7294C74.8492 12.9737 74.4003 13.2608 73.933 13.5357C73.4718 13.8166 73.0168 14.1037 72.568 14.3847C72.1129 14.6596 71.701 14.9833 71.289 15.2887C70.877 15.6002 70.4774 15.9118 70.0777 16.2172C69.8809 16.376 69.6842 16.5287 69.4997 16.6875C69.3214 16.8524 69.1431 17.0173 68.9648 17.1823C68.6143 17.5121 68.2761 17.8358 67.9563 18.1596C67.6366 18.4894 67.3169 18.8009 67.034 19.1308C66.7573 19.4667 66.4991 19.7966 66.2593 20.1203C65.7797 20.7739 65.337 21.3786 65.0111 21.9894C64.3839 23.2233 64.0396 24.3044 64.0396 25.1596C64.9373 24.8725 65.9395 24.2617 67.0033 23.4126C67.5505 22.9973 68.1654 22.5636 68.768 22.0627C69.0754 21.8184 69.3829 21.5557 69.7026 21.287C70.0223 21.0243 70.3728 20.7678 70.7172 20.499C73.4288 18.3001 76.7737 15.8385 80.3339 13.8105C83.8695 11.7643 87.5834 10.1578 90.4671 9.15608C93.3509 8.14823 95.3677 7.72676 95.3616 7.72066Z" fill="url(#paint13_linear_3563_1390)"/>
<path d="M84.5767 4.01318C84.5829 4.01318 82.5353 4.59346 79.6023 5.83954C76.6694 7.0795 72.8571 9.02191 69.3461 11.5751C65.8229 14.1039 62.6132 17.2619 60.6148 20.3771C58.5857 23.4739 57.8048 26.4914 58.2844 28.2322C59.7847 27.2305 61.4387 24.9338 63.7077 22.2523C65.9458 19.5586 68.7804 16.48 71.8056 13.7191C74.8124 10.9399 77.9791 8.48439 80.4263 6.76187C82.8735 5.02714 84.5767 4.01318 84.5767 4.01318Z" fill="url(#paint14_linear_3563_1390)"/>
<path d="M72.1992 2.01562C72.1992 2.01562 70.2377 2.80969 67.5691 4.48945C64.9067 6.16309 61.574 8.75908 58.7517 11.9781C58.3828 12.369 58.0508 12.7905 57.7187 13.2059C57.3867 13.6273 57.0608 14.0488 56.7349 14.4703C56.3967 14.8917 56.1262 15.3437 55.831 15.7774C55.5421 16.2172 55.2592 16.6631 54.9825 17.1029C54.6935 17.5366 54.4722 18.0008 54.2324 18.4467C53.9987 18.8987 53.7712 19.3446 53.5498 19.7844C53.4453 20.0043 53.3285 20.2242 53.2362 20.4502C53.144 20.6762 53.0579 20.8961 52.9718 21.1221C52.7997 21.568 52.6337 22.0017 52.4799 22.4353C52.3324 22.869 52.1725 23.2844 52.068 23.6997C51.9634 24.1212 51.8712 24.5305 51.7851 24.9336C51.699 25.3306 51.6314 25.7216 51.5699 26.0942C51.5146 26.4729 51.4469 26.8271 51.4469 27.1814C51.3916 28.5924 51.5207 29.7591 51.8589 30.5837C52.5353 29.9851 53.1748 29.0383 53.7773 27.835C53.9188 27.5296 54.1094 27.2303 54.2754 26.9004C54.4476 26.5767 54.6197 26.2408 54.7919 25.8865C54.9641 25.5383 55.1301 25.1718 55.3022 24.7992C55.4744 24.4266 55.6835 24.054 55.8741 23.6631C56.0708 23.2722 56.2615 22.8812 56.4582 22.472C56.5566 22.2704 56.655 22.0627 56.7534 21.8551C56.8517 21.6474 56.9747 21.4458 57.0793 21.2442C57.2945 20.8289 57.5158 20.4135 57.7495 19.9921C57.977 19.5706 58.1799 19.1308 58.4381 18.7155C58.6841 18.294 58.93 17.8664 59.1821 17.4388C59.4404 17.0113 59.6618 16.5715 59.9446 16.1561C60.2151 15.7346 60.4857 15.3071 60.7562 14.8917C61.0268 14.4702 61.2912 14.0427 61.5863 13.6395C63.8429 10.335 66.4254 7.36641 68.5222 5.28962C70.6128 3.20672 72.1992 2.02173 72.1992 2.01562Z" fill="url(#paint15_linear_3563_1390)"/>
<path d="M46.5831 10.9033C46.5831 10.9033 44.886 12.1127 42.6663 14.3545C40.4466 16.5839 37.7534 19.8824 35.6197 23.6756C35.3369 24.1459 35.0909 24.6284 34.8511 25.1171C34.6052 25.6058 34.3654 26.0944 34.1256 26.5831C33.8735 27.0717 33.689 27.5787 33.48 28.0735C33.277 28.5743 33.0803 29.0752 32.8897 29.57C32.6868 30.0647 32.5515 30.5717 32.3916 31.0665C32.244 31.5613 32.1026 32.056 31.9612 32.5386C31.8936 32.7829 31.8198 33.0211 31.7706 33.2654C31.7214 33.5098 31.6722 33.748 31.623 33.9862C31.5308 34.4627 31.4447 34.9269 31.3648 35.3911C31.291 35.8492 31.2049 36.2951 31.168 36.7349C31.1311 37.1747 31.1065 37.6023 31.0881 38.0115C31.0696 38.4208 31.0635 38.8239 31.0635 39.2026C31.0696 39.5874 31.0573 39.9539 31.1065 40.3021C31.2664 41.7009 31.5615 42.8187 31.9981 43.5517C32.5453 42.8065 32.9942 41.7192 33.3754 40.3937C33.4615 40.0639 33.5968 39.7157 33.7013 39.3614C33.812 39.0011 33.9227 38.6284 34.0272 38.2436C34.1317 37.8588 34.2363 37.4618 34.3408 37.0525C34.4453 36.6433 34.5867 36.2279 34.7036 35.8065C34.8265 35.3789 34.9495 34.9452 35.0725 34.4993C35.134 34.2794 35.1893 34.0534 35.2508 33.8274C35.3123 33.6014 35.3922 33.3754 35.466 33.1494C35.6074 32.6913 35.7489 32.2332 35.8964 31.7628C36.044 31.2986 36.167 30.8161 36.3453 30.3518C36.5113 29.8815 36.6773 29.4051 36.8434 28.9286C37.0155 28.4522 37.1569 27.9635 37.3599 27.4932C37.5505 27.0168 37.7349 26.5403 37.9256 26.0639C38.11 25.5874 38.2945 25.111 38.5097 24.6468C40.1022 20.8963 42.0453 17.4086 43.6747 14.9103C45.3041 12.4182 46.5892 10.9033 46.5831 10.9033Z" fill="url(#paint16_linear_3563_1390)"/>
<path d="M67.9935 0C67.9935 0 65.7984 1.32548 62.7117 3.70157C59.625 6.07155 55.702 9.5288 52.2095 13.603C48.7047 17.6588 45.6672 22.3377 43.9885 26.644C43.14 28.788 42.6235 30.8342 42.4513 32.5812C42.4144 33.0209 42.3714 33.4363 42.3775 33.8333C42.3837 34.2304 42.4021 34.6091 42.4267 34.9572C42.5005 35.6597 42.6604 36.2705 42.8449 36.7531C43.1646 36.3255 43.4474 35.7941 43.761 35.1832C43.927 34.8778 44.0808 34.5541 44.2406 34.2059C44.3944 33.8578 44.5911 33.4974 44.7571 33.1126C45.4704 31.5855 46.3066 29.7775 47.3089 27.8168C49.3011 23.8892 52.025 19.3569 55.0134 15.1789C57.9832 10.9948 61.1991 7.16492 63.7078 4.42234C66.2288 1.68586 67.9935 0 67.9935 0Z" fill="url(#paint17_linear_3563_1390)"/>
<path d="M109 30.1868C109 30.1929 106.842 29.6249 103.485 28.7819C100.127 27.9451 95.5587 26.8701 90.7258 25.9844C85.899 25.0865 80.8016 24.3779 76.4482 24.1153C75.366 24.0664 74.3207 24.0114 73.3431 24.0053C72.3654 23.9931 71.4554 24.042 70.6253 24.0847C68.959 24.1825 67.6185 24.4329 66.7393 24.836C67.7108 25.343 69.125 25.7828 70.8467 26.186C71.7075 26.3936 72.6421 26.5524 73.6382 26.7357C74.6343 26.9067 75.6919 27.09 76.7926 27.2366C81.1951 27.8718 86.2679 28.391 91.0455 28.8369C95.8231 29.2828 100.312 29.6493 103.608 29.8814C106.897 30.1257 109 30.1929 109 30.1868Z" fill="url(#paint18_linear_3563_1390)"/>
<path d="M96.6221 39.8985C96.6221 39.9047 94.6176 39.0067 91.4387 37.7546C88.2659 36.5024 83.8941 34.9265 79.2087 33.5582C74.5233 32.1778 69.5366 30.9989 65.2386 30.272C64.1687 30.0705 63.1357 29.9177 62.1642 29.8017C61.1926 29.6734 60.2888 29.5574 59.4402 29.5024C58.5917 29.4596 57.8354 29.3985 57.1467 29.4108C56.4642 29.4169 55.8616 29.478 55.3574 29.5879C55.7694 29.9055 56.3105 30.2232 56.95 30.5469C57.5894 30.8645 58.3396 31.2188 59.1758 31.4998C60.0059 31.793 60.9282 32.1106 61.9121 32.4038C62.8959 32.6787 63.9412 32.9596 65.0295 33.2467C69.3952 34.3279 74.4433 35.3235 79.141 36.2642C83.8449 37.2048 88.2105 38.1088 91.4018 38.793C94.5991 39.4771 96.6221 39.9047 96.6221 39.8985Z" fill="url(#paint19_linear_3563_1390)"/>
<path d="M86.1385 41.7741C86.1385 41.7802 84.0233 41.151 80.6968 40.2959C77.3642 39.4407 72.7956 38.3901 67.9257 37.535C63.0559 36.6676 57.897 36.0018 53.4883 35.5987C51.287 35.3849 49.2702 35.2627 47.5486 35.1955C46.6877 35.1772 45.9007 35.1528 45.1936 35.1894C44.4926 35.2138 43.8716 35.2566 43.3428 35.3727C43.7547 35.6842 44.2897 36.014 44.9476 36.3194C45.6055 36.6126 46.3803 36.9241 47.2534 37.1807C48.9935 37.7243 51.1026 38.1763 53.3899 38.555C57.9708 39.3063 63.2403 39.7889 68.1102 40.2287C72.9862 40.6624 77.4994 41.0472 80.7829 41.3343C84.0664 41.6214 86.1324 41.7802 86.1385 41.7741Z" fill="url(#paint20_linear_3563_1390)"/>
<path d="M77.6657 47.7112C77.6657 47.7173 75.2554 47.0943 71.4431 46.3491C67.6309 45.61 62.3736 44.8037 56.7659 44.4311C51.1582 44.0402 45.2123 44.0829 40.1518 44.4861C37.6185 44.6815 35.3127 44.9503 33.3574 45.2679C31.4082 45.6039 29.8157 45.9337 28.6904 46.3979C29.7419 46.8255 31.3836 47.1492 33.4066 47.2897C35.4295 47.4424 37.8399 47.4669 40.4408 47.4302C45.6489 47.3508 51.6071 47.1004 57.1471 47.0759C62.6934 47.0332 67.8338 47.1798 71.5723 47.363C75.3107 47.5524 77.6596 47.7234 77.6657 47.7112Z" fill="url(#paint21_linear_3563_1390)"/>
<path d="M73.0969 51.486C73.0969 51.4921 70.7173 50.9729 66.9481 50.3499C63.1789 49.7268 57.9893 49.0733 52.4554 48.7617C46.9214 48.4319 41.0616 48.4685 36.0811 48.6701C33.5908 48.7678 31.3219 48.8961 29.3973 49.0366C27.4666 49.2015 25.8986 49.2993 24.7119 49.5925C25.6096 50.1788 27.1468 50.753 29.1391 51.0645C31.1251 51.4005 33.5293 51.5593 36.1364 51.6143C41.3568 51.712 47.3211 51.4677 52.8304 51.3761C58.3459 51.2661 63.4248 51.2844 67.108 51.3516C70.785 51.4249 73.0908 51.4921 73.0969 51.486Z" fill="url(#paint22_linear_3563_1390)"/>
<path d="M66.8496 53.5872C66.8496 53.5994 64.4761 53.2635 60.7254 52.9459C56.9807 52.6282 51.8342 52.39 46.374 52.5305C40.92 52.6588 35.1586 53.178 30.2887 53.801C27.8538 54.1125 25.6341 54.424 23.7587 54.7356C21.8772 55.0654 20.3461 55.2975 19.1963 55.6946C20.1002 56.2076 21.6374 56.6535 23.605 56.794C25.5665 56.959 27.9338 56.9162 30.4917 56.7513C35.6136 56.4092 41.4611 55.6579 46.8782 55.1204C52.3015 54.5584 57.3005 54.1614 60.9344 53.9415C64.5684 53.7094 66.8496 53.5933 66.8496 53.5872Z" fill="url(#paint23_linear_3563_1390)"/>
<path d="M68.6391 57.3196C68.6391 57.3318 66.0689 56.8309 61.9922 56.33C57.9156 55.8292 52.2955 55.4016 46.3066 55.5115C40.3238 55.5909 33.9844 56.214 28.6288 57.0386C25.9479 57.4417 23.5068 57.8754 21.4531 58.2786C19.3933 58.6756 17.7208 58.9993 16.4849 59.4208C17.4933 59.9278 19.2026 60.2759 21.367 60.3431C23.5253 60.4103 26.1139 60.2454 28.8993 59.9766C34.4886 59.4269 40.8772 58.5779 46.7985 58.0831C52.7321 57.5578 58.2107 57.3562 62.1828 57.3135C66.1488 57.2768 68.6391 57.3318 68.6391 57.3196Z" fill="url(#paint24_linear_3563_1390)"/>
<path d="M59.3792 67.2148C59.3792 67.227 56.8213 66.7566 52.7569 66.3413C48.6987 65.9259 43.1094 65.6572 37.1943 65.987C31.2791 66.2863 25.0504 67.1903 19.8239 68.2715C17.2045 68.8029 14.8372 69.3587 12.845 69.8535C10.8466 70.3544 9.23564 70.7575 8.03662 71.2401C8.98969 71.7287 10.613 72.0219 12.6913 71.9914C14.7634 71.9669 17.266 71.6676 19.9838 71.2584C25.4255 70.4155 31.7218 69.2427 37.6001 68.5097C43.4845 67.7462 48.957 67.3919 52.923 67.2881C56.8951 67.1842 59.3792 67.227 59.3792 67.2148Z" fill="url(#paint25_linear_3563_1390)"/>
<path d="M53.6051 60.6604C53.6051 60.6665 51.496 60.5627 48.1818 60.5627C44.8737 60.5566 40.3482 60.7093 35.5829 61.1735C30.8176 61.6255 25.837 62.3951 21.6374 63.2014C17.4254 64.0199 14.0251 64.7529 12.0698 65.6997C12.4695 65.9135 12.9921 66.115 13.6255 66.2555C14.265 66.3777 15.0151 66.4937 15.8513 66.5121C17.5361 66.5854 19.5714 66.4571 21.7911 66.1883C26.2305 65.6386 31.3525 64.6063 36.0932 63.7206C40.8401 62.8166 45.2365 62.047 48.4216 61.5217C51.6128 60.9964 53.5989 60.6665 53.6051 60.6604Z" fill="url(#paint26_linear_3563_1390)"/>
<path d="M40.5392 70.5986C40.5392 70.6047 38.7253 70.6719 35.903 70.8918C33.0807 71.1117 29.25 71.5332 25.2594 72.2112C21.2627 72.877 17.1307 73.7749 13.6627 74.6911C10.1887 75.6257 7.37866 76.4808 5.75537 77.5803C7.03432 78.466 10.0718 78.4599 13.7488 77.7697C17.432 77.0917 21.7177 75.8822 25.7083 74.7583C29.705 73.6161 33.4312 72.5655 36.1367 71.8264C38.8421 71.0812 40.5331 70.6047 40.5392 70.5986Z" fill="url(#paint27_linear_3563_1390)"/>
<path d="M3.96566 75.6562C8.07306 67.3307 13.1458 59.8543 19.0118 53.3857C34.0825 36.4415 52.0125 29.4476 62.1949 26.4302C40.2744 35.0611 21.8956 50.8691 9.66561 72.6754C8.47274 74.801 7.04621 77.0366 6.19768 79.4127C5.52131 81.2757 5.3184 84.0427 3.38152 84.0061C-0.658248 83.9511 2.90191 77.6352 3.96566 75.6562Z" fill="url(#paint28_linear_3563_1390)"/>
<path d="M62.1948 26.4301C65.1708 25.2574 68.2145 24.219 71.3197 23.3149C71.6025 23.9319 68.1161 24.6587 62.1948 26.4301Z" fill="url(#paint29_linear_3563_1390)"/>
</g>
<defs>
<linearGradient id="paint0_linear_3563_1390" x1="5.64194" y1="48.5149" x2="0.316902" y2="47.3637" gradientUnits="userSpaceOnUse">
<stop offset="0.0108" stop-color="#00BF56"/>
<stop offset="0.5968" stop-color="#008168"/>
<stop offset="0.9516" stop-color="#005449"/>
</linearGradient>
<linearGradient id="paint1_linear_3563_1390" x1="8.88365" y1="46.6752" x2="3.97237" y2="45.6136" gradientUnits="userSpaceOnUse">
<stop offset="0.0108" stop-color="#00BF56"/>
<stop offset="0.5968" stop-color="#008168"/>
<stop offset="0.9516" stop-color="#005449"/>
</linearGradient>
<linearGradient id="paint2_linear_3563_1390" x1="15.252" y1="46.5702" x2="5.91092" y2="43.8838" gradientUnits="userSpaceOnUse">
<stop offset="0.0108" stop-color="#00BF56"/>
<stop offset="0.5968" stop-color="#008168"/>
<stop offset="0.9516" stop-color="#005449"/>
</linearGradient>
<linearGradient id="paint3_linear_3563_1390" x1="24.2505" y1="35.3687" x2="17.6031" y2="32.9452" gradientUnits="userSpaceOnUse">
<stop offset="0.0108" stop-color="#00BF56"/>
<stop offset="0.5968" stop-color="#008168"/>
<stop offset="0.9516" stop-color="#005449"/>
</linearGradient>
<linearGradient id="paint4_linear_3563_1390" x1="27.8178" y1="31.862" x2="23.1417" y2="29.9699" gradientUnits="userSpaceOnUse">
<stop offset="0.0108" stop-color="#00BF56"/>
<stop offset="0.5968" stop-color="#008168"/>
<stop offset="0.9516" stop-color="#005449"/>
</linearGradient>
<linearGradient id="paint5_linear_3563_1390" x1="19.7435" y1="40.818" x2="13.6922" y2="38.3694" gradientUnits="userSpaceOnUse">
<stop offset="0.0108" stop-color="#00BF56"/>
<stop offset="0.5968" stop-color="#008168"/>
<stop offset="0.9516" stop-color="#005449"/>
</linearGradient>
<linearGradient id="paint6_linear_3563_1390" x1="37.7035" y1="26.068" x2="32.3312" y2="22.4184" gradientUnits="userSpaceOnUse">
<stop offset="0.0108" stop-color="#00BF56"/>
<stop offset="0.5968" stop-color="#008168"/>
<stop offset="0.9516" stop-color="#005449"/>
</linearGradient>
<linearGradient id="paint7_linear_3563_1390" x1="88.7075" y1="20.9613" x2="84.6953" y2="14.861" gradientUnits="userSpaceOnUse">
<stop offset="0.0108" stop-color="#00BF56"/>
<stop offset="0.5968" stop-color="#008168"/>
<stop offset="0.9516" stop-color="#005449"/>
</linearGradient>
<linearGradient id="paint8_linear_3563_1390" x1="89.2165" y1="21.1113" x2="83.8055" y2="12.4576" gradientUnits="userSpaceOnUse">
<stop offset="0.0108" stop-color="#00BF56"/>
<stop offset="0.5968" stop-color="#008168"/>
<stop offset="0.9516" stop-color="#005449"/>
</linearGradient>
<linearGradient id="paint9_linear_3563_1390" x1="82.2578" y1="27.7549" x2="83.8386" y2="41.0993" gradientUnits="userSpaceOnUse">
<stop offset="0.0484" stop-color="#005449"/>
<stop offset="0.4032" stop-color="#008168"/>
<stop offset="0.9892" stop-color="#00BF56"/>
</linearGradient>
<linearGradient id="paint10_linear_3563_1390" x1="70.5814" y1="31.0738" x2="71.6651" y2="40.2215" gradientUnits="userSpaceOnUse">
<stop offset="0.0484" stop-color="#005449"/>
<stop offset="0.4032" stop-color="#008168"/>
<stop offset="0.9892" stop-color="#00BF56"/>
</linearGradient>
<linearGradient id="paint11_linear_3563_1390" x1="57.999" y1="41.5074" x2="57.8929" y2="44.2412" gradientUnits="userSpaceOnUse">
<stop offset="0.0484" stop-color="#005449"/>
<stop offset="0.4032" stop-color="#008168"/>
<stop offset="0.9892" stop-color="#00BF56"/>
</linearGradient>
<linearGradient id="paint12_linear_3563_1390" x1="47.9093" y1="21.7311" x2="44.0922" y2="18.8487" gradientUnits="userSpaceOnUse">
<stop offset="0.0108" stop-color="#00BF56"/>
<stop offset="0.5968" stop-color="#008168"/>
<stop offset="0.9516" stop-color="#005449"/>
</linearGradient>
<linearGradient id="paint13_linear_3563_1390" x1="79.9328" y1="16.6142" x2="73.4447" y2="10.4517" gradientUnits="userSpaceOnUse">
<stop offset="0.0108" stop-color="#00BF56"/>
<stop offset="0.5968" stop-color="#008168"/>
<stop offset="0.9516" stop-color="#005449"/>
</linearGradient>
<linearGradient id="paint14_linear_3563_1390" x1="71.382" y1="16.0908" x2="66.6485" y2="12.0709" gradientUnits="userSpaceOnUse">
<stop offset="0.0108" stop-color="#00BF56"/>
<stop offset="0.5968" stop-color="#008168"/>
<stop offset="0.9516" stop-color="#005449"/>
</linearGradient>
<linearGradient id="paint15_linear_3563_1390" x1="61.5322" y1="16.1006" x2="55.9378" y2="13.3054" gradientUnits="userSpaceOnUse">
<stop offset="0.0108" stop-color="#00BF56"/>
<stop offset="0.5968" stop-color="#008168"/>
<stop offset="0.9516" stop-color="#005449"/>
</linearGradient>
<linearGradient id="paint16_linear_3563_1390" x1="38.0914" y1="26.7418" x2="34.3978" y2="24.8962" gradientUnits="userSpaceOnUse">
<stop offset="0.0108" stop-color="#00BF56"/>
<stop offset="0.5968" stop-color="#008168"/>
<stop offset="0.9516" stop-color="#005449"/>
</linearGradient>
<linearGradient id="paint17_linear_3563_1390" x1="54.735" y1="18.0798" x2="49.034" y2="14.9718" gradientUnits="userSpaceOnUse">
<stop offset="0.0108" stop-color="#00BF56"/>
<stop offset="0.5968" stop-color="#008168"/>
<stop offset="0.9516" stop-color="#005449"/>
</linearGradient>
<linearGradient id="paint18_linear_3563_1390" x1="86.0821" y1="21.6493" x2="89.3391" y2="35.202" gradientUnits="userSpaceOnUse">
<stop offset="0.0484" stop-color="#005449"/>
<stop offset="0.4032" stop-color="#008168"/>
<stop offset="0.9892" stop-color="#00BF56"/>
</linearGradient>
<linearGradient id="paint19_linear_3563_1390" x1="76.0493" y1="32.3815" x2="75.8891" y2="39.7997" gradientUnits="userSpaceOnUse">
<stop offset="0.0484" stop-color="#005449"/>
<stop offset="0.4032" stop-color="#008168"/>
<stop offset="0.9892" stop-color="#00BF56"/>
</linearGradient>
<linearGradient id="paint20_linear_3563_1390" x1="64.6823" y1="36.0559" x2="64.7631" y2="42.0497" gradientUnits="userSpaceOnUse">
<stop offset="0.0484" stop-color="#005449"/>
<stop offset="0.4032" stop-color="#008168"/>
<stop offset="0.9892" stop-color="#00BF56"/>
</linearGradient>
<linearGradient id="paint21_linear_3563_1390" x1="52.9836" y1="44.162" x2="53.247" y2="49.4979" gradientUnits="userSpaceOnUse">
<stop offset="0.0484" stop-color="#005449"/>
<stop offset="0.4032" stop-color="#008168"/>
<stop offset="0.9892" stop-color="#00BF56"/>
</linearGradient>
<linearGradient id="paint22_linear_3563_1390" x1="48.9052" y1="50.5173" x2="48.7058" y2="52.653" gradientUnits="userSpaceOnUse">
<stop offset="0.0484" stop-color="#005449"/>
<stop offset="0.4032" stop-color="#008168"/>
<stop offset="0.9892" stop-color="#00BF56"/>
</linearGradient>
<linearGradient id="paint23_linear_3563_1390" x1="43.0178" y1="54.7088" x2="42.7042" y2="58.069" gradientUnits="userSpaceOnUse">
<stop offset="0.0484" stop-color="#005449"/>
<stop offset="0.4032" stop-color="#008168"/>
<stop offset="0.9892" stop-color="#00BF56"/>
</linearGradient>
<linearGradient id="paint24_linear_3563_1390" x1="42.5617" y1="56.9348" x2="42.5392" y2="60.763" gradientUnits="userSpaceOnUse">
<stop offset="0.0484" stop-color="#005449"/>
<stop offset="0.4032" stop-color="#008168"/>
<stop offset="0.9892" stop-color="#00BF56"/>
</linearGradient>
<linearGradient id="paint25_linear_3563_1390" x1="33.9241" y1="67.0788" x2="33.3575" y2="73.7804" gradientUnits="userSpaceOnUse">
<stop offset="0.0484" stop-color="#005449"/>
<stop offset="0.4032" stop-color="#008168"/>
<stop offset="0.9892" stop-color="#00BF56"/>
</linearGradient>
<linearGradient id="paint26_linear_3563_1390" x1="33.046" y1="60.3748" x2="32.5326" y2="68.3612" gradientUnits="userSpaceOnUse">
<stop offset="0.0484" stop-color="#005449"/>
<stop offset="0.4032" stop-color="#008168"/>
<stop offset="0.9892" stop-color="#00BF56"/>
</linearGradient>
<linearGradient id="paint27_linear_3563_1390" x1="23.1471" y1="73.0965" x2="23.1089" y2="78.2767" gradientUnits="userSpaceOnUse">
<stop offset="0.0108" stop-color="#00BF56"/>
<stop offset="0.5968" stop-color="#008168"/>
<stop offset="0.9516" stop-color="#005449"/>
</linearGradient>
<linearGradient id="paint28_linear_3563_1390" x1="70.2114" y1="54.5145" x2="41.8922" y2="55.0541" gradientUnits="userSpaceOnUse">
<stop offset="0.0108" stop-color="#00BF56"/>
<stop offset="0.5968" stop-color="#008168"/>
<stop offset="0.9516" stop-color="#005449"/>
</linearGradient>
<linearGradient id="paint29_linear_3563_1390" x1="72.4787" y1="24.7679" x2="68.2601" y2="24.8482" gradientUnits="userSpaceOnUse">
<stop offset="0.0108" stop-color="#00BF56"/>
<stop offset="0.5968" stop-color="#008168"/>
<stop offset="0.9516" stop-color="#005449"/>
</linearGradient>
<clipPath id="clip0_3563_1390">
<rect width="109" height="84" fill="white"/>
</clipPath>
</defs>
</svg>
