<svg width="229" height="226" viewBox="0 0 229 226" fill="none" xmlns="http://www.w3.org/2000/svg">
<g clip-path="url(#clip0_3625_285)">
<path d="M159.061 152.842C159.061 152.842 151.992 193.377 151.965 194.365C151.938 195.353 156.763 200.333 156.763 200.333L176.031 167.995L159.061 152.842Z" fill="#EAF4F9"/>
<path d="M157.867 162.653C155.784 174.399 152.407 193.548 152.389 194.214C152.384 194.461 152.681 194.957 153.128 195.561C153.669 192.88 159.068 163.699 159.135 163.366C158.753 163.03 158.296 162.742 157.867 162.653Z" fill="white"/>
<path d="M159.038 157.045C159.508 157.376 159.959 157.747 160.384 158.153C160.623 157.033 160.827 155.847 161.186 154.745L159.686 153.405C159.685 153.4 159.44 154.786 159.038 157.045Z" fill="white"/>
<path opacity="0.4" d="M157.407 162.363C157.758 162.11 157.787 161.69 158.291 162.013C159.953 163.078 162.703 165.334 164.393 166.785C165.937 168.112 169.032 170.587 168.235 172.578C167.298 174.926 155.872 199.139 155.563 199.063C156.251 199.808 156.76 200.336 156.76 200.336L176.029 167.998L159.058 152.845C159.061 152.842 158.361 156.845 157.407 162.363Z" fill="#C1CCD5"/>
<path opacity="0.5" d="M158.116 158.284C160.022 160.327 167.627 166.53 171.491 169.561C172.842 170.621 171.658 172.517 170.161 175.704C167.739 180.855 164.853 185.756 162.245 190.809C161.852 191.566 161.468 192.325 161.082 193.087L176.034 167.998L159.064 152.844C159.061 152.842 158.688 154.981 158.116 158.284Z" fill="#C1CCD5"/>
<path d="M161.591 158.129L160.763 162.794C160.482 164.348 160.221 165.904 159.926 167.457L158.143 176.763L156.383 186.074C156.094 187.626 155.808 189.181 155.532 190.735L155.338 191.899L155.301 192.175L155.281 192.315L155.305 192.447C155.357 192.588 155.456 192.765 155.559 192.92C155.999 193.549 156.553 194.122 157.113 194.664L156.918 194.695L164.819 180.94L166.795 177.499C167.459 176.355 168.101 175.202 168.779 174.066L172.829 167.245L168.977 174.179C168.341 175.338 167.663 176.474 167.013 177.625L165.037 181.066L157.136 194.821L157.055 194.959L156.94 194.846C156.369 194.294 155.812 193.723 155.351 193.059C155.238 192.886 155.132 192.722 155.058 192.488C155.049 192.433 155.039 192.409 155.029 192.326L155.048 192.17L155.089 191.86L155.286 190.687C155.564 189.131 155.847 187.579 156.139 186.024L157.899 176.713L159.677 167.407C159.974 165.857 160.314 164.313 160.631 162.765L161.591 158.129Z" fill="#AEC1CE"/>
<path d="M155.033 193.127C154.93 192.972 154.829 192.792 154.779 192.653L154.755 192.522L154.775 192.382L154.812 192.106L155.007 190.941C155.282 189.387 155.568 187.833 155.86 186.283L157.62 176.973L159.403 167.666C159.698 166.114 159.959 164.558 160.24 163.003L161.068 158.338L160.103 162.975C159.785 164.523 159.448 166.064 159.148 167.617L157.371 176.923L155.611 186.234C155.322 187.786 155.035 189.34 154.76 190.894L154.563 192.067L154.522 192.377L154.503 192.533C154.513 192.61 154.523 192.64 154.532 192.695C154.606 192.929 154.712 193.092 154.825 193.266C155.289 193.933 155.843 194.5 156.414 195.053L156.529 195.166L156.539 195.148C156.497 195.001 156.473 194.864 156.458 194.74C155.941 194.237 155.44 193.705 155.033 193.127Z" fill="white"/>
<path d="M168.73 173.645C168.052 174.781 167.41 175.934 166.746 177.078L164.77 180.518L156.947 194.133C156.941 194.128 156.935 194.123 156.929 194.118C156.948 194.244 156.969 194.379 157.011 194.526L157.081 194.4L164.982 180.645L166.958 177.204C167.611 176.056 168.287 174.917 168.923 173.758L172.774 166.824L168.73 173.645Z" fill="white"/>
<path d="M159.061 152.841C159.061 152.841 198.54 141.247 199.519 141.109C200.498 140.97 205.99 145.203 205.99 145.203L176.031 167.995L159.061 152.841Z" fill="#EAF4F9"/>
<path opacity="0.4" d="M168.334 150.124C168.123 150.502 167.708 150.578 168.087 151.042C169.332 152.574 171.884 155.052 173.516 156.567C175.008 157.952 177.816 160.748 179.705 159.732C181.932 158.536 204.703 144.453 204.592 144.154C205.41 144.754 205.993 145.2 205.993 145.2L176.033 167.992L159.063 152.838C159.06 152.841 162.957 151.698 168.334 150.124Z" fill="#C1CCD5"/>
<path opacity="0.5" d="M164.361 151.288C166.607 152.952 173.628 159.809 177.074 163.307C178.28 164.53 180.031 163.139 183.028 161.293C187.874 158.305 192.418 154.885 197.145 151.724C197.853 151.249 198.564 150.782 199.277 150.312L176.034 167.997L159.063 152.844C159.061 152.841 161.144 152.23 164.361 151.288Z" fill="#C1CCD5"/>
<path d="M164.599 154.76L169.141 153.411C170.654 152.956 172.17 152.521 173.68 152.053L182.726 149.233L191.779 146.434C193.288 145.971 194.801 145.512 196.314 145.063L197.448 144.738L197.719 144.67L197.856 144.635L197.989 144.644C198.135 144.68 198.323 144.758 198.488 144.843C199.163 145.21 199.795 145.695 200.397 146.19L200.405 145.993L187.629 155.395L184.432 157.746C183.371 158.535 182.297 159.303 181.245 160.105L174.924 164.898L181.38 160.289C182.46 159.526 183.512 158.724 184.583 157.948L187.779 155.597L200.555 146.195L200.683 146.099L200.558 145.998C199.944 145.492 199.315 145.004 198.603 144.62C198.418 144.528 198.244 144.441 198.003 144.394C197.947 144.391 197.919 144.387 197.839 144.384L197.686 144.42L197.382 144.495L196.239 144.823C194.724 145.275 193.214 145.732 191.702 146.197L182.649 148.996L173.602 151.811C172.096 152.282 170.6 152.793 169.098 153.283L164.599 154.76Z" fill="#AEC1CE"/>
<path d="M198.632 144.3C198.467 144.215 198.276 144.134 198.133 144.1L198 144.091L197.863 144.127L197.592 144.195L196.458 144.52C194.945 144.968 193.432 145.428 191.926 145.893L182.873 148.692L173.826 151.513C172.317 151.98 170.801 152.415 169.288 152.87L164.746 154.219L169.244 152.736C170.747 152.247 172.24 151.738 173.749 151.265L182.795 148.45L191.848 145.651C193.358 145.188 194.87 144.729 196.386 144.277L197.529 143.949L197.832 143.874L197.985 143.837C198.063 143.838 198.094 143.845 198.149 143.847C198.39 143.895 198.564 143.982 198.75 144.074C199.465 144.46 200.091 144.946 200.704 145.452L200.829 145.553L200.816 145.562C200.665 145.537 200.528 145.526 200.401 145.527C199.838 145.077 199.256 144.636 198.632 144.3Z" fill="white"/>
<path d="M180.818 160.107C181.871 159.305 182.944 158.537 184.006 157.748L187.202 155.397L199.845 146.091C199.839 146.086 199.833 146.081 199.828 146.076C199.955 146.08 200.089 146.089 200.243 146.11L200.125 146.195L187.349 155.596L184.153 157.947C183.085 158.726 182.03 159.526 180.95 160.288L174.495 164.897L180.818 160.107Z" fill="white"/>
<path d="M79.7193 125.698C79.7193 125.698 74.8224 122.338 71.8874 118.033C71.8874 118.033 73.5971 113.268 78.1933 110.971C78.1933 110.971 82.2253 113.448 85.921 117.871L79.7193 125.698Z" fill="#EAF3F9"/>
<path opacity="0.4" d="M78.1929 110.966C77.5486 111.288 76.9627 111.662 76.4307 112.058C76.8023 112.012 77.1753 112.04 77.539 112.197C78.4879 112.604 77.8785 114.279 77.6297 114.928C77.4555 115.376 77.0626 116.074 76.2677 117.018C75.8104 117.559 75.0153 118.89 74.7682 119.226C74.1657 120.041 72.8698 118.008 72.2897 117.112C72.0109 117.671 71.884 118.025 71.884 118.025C74.819 122.33 79.7159 125.69 79.7159 125.69L85.9173 117.858C82.2248 113.443 78.1929 110.966 78.1929 110.966ZM77.4784 117.742C77.3102 119.276 77.2568 119.853 77.0388 120.996C76.848 121.985 76.5647 122.073 76.3616 121.913C75.8714 121.528 75.5315 121.203 75.2073 120.667C74.7148 119.85 76.3685 117.721 77.086 117.077C77.5078 116.692 77.511 117.435 77.4784 117.742Z" fill="#697784"/>
<path opacity="0.3" d="M72.6712 116.403C72.1295 117.362 71.89 118.03 71.89 118.03C74.8251 122.335 79.7219 125.695 79.7219 125.695L81.0052 124.076C77.8521 121.942 75.0528 119.4 72.6712 116.403Z" fill="#697784"/>
<path opacity="0.3" d="M78.1932 110.966C77.1418 111.491 76.242 112.146 75.4775 112.843C77.2654 114.067 78.921 115.404 80.5631 116.844C81.7766 117.912 82.9986 118.982 84.0991 120.159L85.9205 117.86C82.2251 113.443 78.1932 110.966 78.1932 110.966Z" fill="#697784"/>
<path opacity="0.5" d="M74.1611 120.84C74.1611 120.84 74.4263 120.237 74.924 119.381C75.0535 119.171 75.1843 118.936 75.3399 118.697C75.49 118.459 75.6501 118.203 75.8327 117.951C76.0039 117.695 76.1973 117.437 76.3932 117.177C76.5891 116.916 76.8023 116.666 77.0093 116.405C77.2308 116.157 77.444 115.906 77.6662 115.669C77.8942 115.437 78.1138 115.203 78.346 114.996C78.5783 114.789 78.791 114.58 79.0225 114.409C79.2484 114.238 79.4549 114.065 79.6574 113.921C79.8628 113.779 80.0555 113.657 80.2241 113.551C80.3924 113.439 80.5547 113.368 80.681 113.298C80.9368 113.164 81.0822 113.089 81.0822 113.089C81.0822 113.089 80.9432 113.18 80.7056 113.34C80.5855 113.422 80.4322 113.506 80.2756 113.628C80.119 113.751 79.9383 113.888 79.7442 114.035C79.5505 114.188 79.3583 114.367 79.144 114.549C78.9297 114.73 78.7287 114.949 78.502 115.156C78.2782 115.365 78.0729 115.607 77.8475 115.836C77.6308 116.073 77.4177 116.323 77.2042 116.568C76.9995 116.821 76.7835 117.069 76.5902 117.326C76.3968 117.584 76.1944 117.828 76.0174 118.08C75.8345 118.326 75.6597 118.568 75.498 118.796C75.3307 119.025 75.1882 119.249 75.0499 119.451C74.7821 119.863 74.5519 120.203 74.4025 120.452C74.2446 120.7 74.1611 120.84 74.1611 120.84Z" fill="#647787"/>
<path d="M82.593 161.998C82.1711 161.254 81.3698 160.319 80.1903 159.265C78.3248 157.6 76.5157 156.588 76.1455 157.002C75.7754 157.417 76.9878 159.103 78.8504 160.766C79.9481 161.746 81.0216 162.495 81.8022 162.866C82.1988 162.822 82.5325 162.448 82.593 161.998Z" fill="#94A1AC"/>
<path opacity="0.3" d="M76.148 156.999C75.7778 157.414 76.9903 159.1 78.8529 160.763C79.9506 161.743 81.0241 162.492 81.8046 162.864C81.8872 162.853 81.9662 162.829 82.0417 162.792L81.3481 162.341C80.9861 162.017 81.5948 161.212 81.9568 161.535L82.539 162.223C82.5655 162.152 82.5887 162.074 82.6009 161.995C82.1791 161.251 81.3777 160.315 80.1983 159.262C78.3273 157.597 76.5182 156.585 76.148 156.999Z" fill="#697784"/>
<path opacity="0.3" d="M81.5213 161.383C81.6383 161.246 81.764 161.117 81.8962 161.004C81.4616 160.474 80.8934 159.888 80.1928 159.262C78.3273 157.597 76.5182 156.585 76.148 156.999C75.7778 157.414 76.9903 159.1 78.8529 160.763C79.6177 161.446 80.3705 162.013 81.0203 162.426C81.146 162.05 81.2459 161.709 81.5213 161.383Z" fill="#697784"/>
<path d="M88.758 150.628C88.3362 149.884 87.5348 148.948 86.3554 147.895C84.4928 146.232 82.6808 145.217 82.3106 145.632C81.9404 146.046 83.1529 147.732 85.0155 149.395C86.1132 150.376 87.1867 151.124 87.9672 151.496C88.3583 151.452 88.692 151.078 88.758 150.628Z" fill="#94A1AC"/>
<path opacity="0.3" d="M82.3106 145.632C81.9404 146.046 83.1529 147.732 85.0155 149.395C86.1132 150.376 87.1867 151.124 87.9672 151.496C88.0498 151.486 88.1288 151.462 88.2043 151.424L87.5107 150.973C87.1487 150.65 87.7574 149.845 88.1194 150.168L88.7016 150.856C88.7307 150.782 88.7513 150.706 88.7635 150.628C88.3417 149.884 87.5403 148.948 86.3609 147.894C84.4899 146.229 82.6808 145.217 82.3106 145.632Z" fill="#697784"/>
<path opacity="0.3" d="M87.6837 150.015C87.8007 149.878 87.9264 149.749 88.0587 149.636C87.624 149.107 87.0585 148.518 86.3549 147.889C84.4923 146.226 82.6803 145.212 82.3101 145.626C81.9399 146.041 83.1524 147.727 85.015 149.39C85.7799 150.073 86.5326 150.64 87.185 151.05C87.3084 150.682 87.4109 150.338 87.6837 150.015Z" fill="#697784"/>
<path d="M101.395 128.173C100.973 127.429 100.172 126.493 98.9921 125.44C97.1295 123.777 95.3175 122.762 94.9473 123.176C94.5771 123.591 95.7896 125.277 97.6522 126.94C98.7499 127.92 99.8234 128.669 100.604 129.041C100.995 128.996 101.331 128.62 101.395 128.173Z" fill="#94A1AC"/>
<path opacity="0.3" d="M94.9473 123.176C94.5771 123.591 95.7896 125.277 97.6522 126.94C98.7499 127.92 99.8234 128.669 100.604 129.041C100.687 129.031 100.766 129.007 100.841 128.969L100.147 128.518C99.7855 128.195 100.394 127.389 100.756 127.713L101.338 128.401C101.367 128.327 101.388 128.251 101.4 128.172C100.978 127.429 100.177 126.493 98.9976 125.439C97.1266 123.774 95.3175 122.762 94.9473 123.176Z" fill="#697784"/>
<path opacity="0.3" d="M100.32 127.56C100.437 127.423 100.563 127.294 100.695 127.181C100.261 126.652 99.6981 126.065 98.9916 125.434C97.129 123.771 95.317 122.757 94.9468 123.171C94.5766 123.586 95.7891 125.272 97.6517 126.935C98.4166 127.618 99.1694 128.185 99.8218 128.595C99.9477 128.224 100.048 127.883 100.32 127.56Z" fill="#697784"/>
<path d="M95.0778 139.402C94.656 138.658 93.8546 137.722 92.6752 136.669C90.8126 135.006 89.0006 133.991 88.6304 134.405C88.2602 134.82 89.4727 136.506 91.3353 138.169C92.433 139.149 93.5065 139.898 94.287 140.27C94.6781 140.225 95.0118 139.852 95.0778 139.402Z" fill="#94A1AC"/>
<path opacity="0.3" d="M88.6275 134.403C88.2573 134.818 89.4698 136.504 91.3323 138.167C92.43 139.147 93.5036 139.896 94.2841 140.267C94.3667 140.257 94.4457 140.233 94.5212 140.196L93.8306 139.747C93.4685 139.424 94.0772 138.619 94.4392 138.942L95.0214 139.63C95.0479 139.559 95.0712 139.48 95.0834 139.402C94.6615 138.658 93.8601 137.722 92.6807 136.669C90.8097 135.003 88.9977 133.988 88.6275 134.403Z" fill="#697784"/>
<path opacity="0.3" d="M94.0037 138.789C94.1207 138.652 94.2464 138.523 94.3787 138.41C93.944 137.881 93.3788 137.297 92.6723 136.666C90.8097 135.003 88.9977 133.988 88.6275 134.403C88.2573 134.818 89.4698 136.504 91.3323 138.167C92.0972 138.85 92.85 139.417 93.4998 139.829C93.6255 139.454 93.728 139.11 94.0037 138.789Z" fill="#697784"/>
<path d="M81.0424 89.2416C81.0424 89.2416 72.1899 168.854 72.6199 170.135C73.05 171.417 75.1084 172.132 75.1084 172.132L106.986 114.543L81.0424 89.2416Z" fill="#EAF3F9"/>
<path d="M75.2463 142.525C73.6796 157.366 72.4529 169.64 72.6169 170.138C73.0469 171.42 75.1053 172.135 75.1053 172.135L86.1211 152.235L75.2463 142.525Z" fill="#146B83"/>
<path d="M77.0017 126.115C76.7889 128.087 76.5764 130.064 76.3639 132.042L90.3712 144.549L92.7781 140.203L77.0017 126.115Z" fill="#146B83"/>
<path opacity="0.4" d="M72.9467 169.645C72.9467 169.645 79.9656 100.889 80.0549 99.5258C80.147 98.1651 83.2802 101.073 84.9676 102.58L73.4699 170.564C73.4699 170.564 72.8254 170.539 72.9467 169.645Z" fill="white"/>
<path opacity="0.5" d="M79.7732 100.67C80.2102 99.0349 81.1567 99.009 81.6971 99.3499C82.272 99.711 92.5262 109.135 94.4124 110.872C97.512 113.723 99.5546 116.807 98.9019 119.43C98.055 122.835 76.3008 167.535 74.7584 170.161C74.4321 170.715 72.9795 170.173 72.9495 169.643C72.9098 168.941 72.8981 168.196 72.7479 167.647C72.6266 169.129 72.5794 170.01 72.6253 170.135C73.0553 171.416 75.1138 172.131 75.1138 172.131L106.985 114.538L81.0423 89.2416C81.0367 89.2419 80.5331 93.7665 79.7732 100.67Z" fill="#C1CCD5"/>
<path opacity="0.5" d="M85.4019 95.5534C87.1848 97.6702 88.9706 99.7895 90.6874 101.963C92.0817 103.727 93.3565 105.584 94.7557 107.337C97.6702 110.984 103.107 114.685 101.329 119.609C99.2757 125.305 82.1479 159.077 80.8241 161.793L106.974 114.538L81.0311 89.2422C81.0311 89.2422 80.989 89.6243 80.9123 90.3272C82.3386 92.1675 83.9963 93.8838 85.4019 95.5534Z" fill="#C1CCD5"/>
<path opacity="0.8" d="M77.7861 165.173C77.5473 164.97 77.2703 164.728 76.9624 164.479C76.66 164.23 76.3294 163.972 76.0014 163.71C75.6682 163.455 75.3375 163.196 75.0195 162.965C74.7041 162.73 74.4039 162.52 74.1495 162.335C73.8951 162.149 73.6738 162.01 73.5209 161.905C73.3655 161.802 73.2791 161.746 73.2791 161.746C73.2791 161.746 73.358 161.817 73.4926 161.942C73.6298 162.065 73.8228 162.242 74.0645 162.448C74.3032 162.65 74.5803 162.892 74.8881 163.141C75.1905 163.39 75.5241 163.651 75.8492 163.91C76.1824 164.166 76.513 164.424 76.831 164.656C77.1464 164.89 77.4466 165.1 77.701 165.286C77.9554 165.471 78.1768 165.611 78.3296 165.716C78.4822 165.815 78.5714 165.874 78.5714 165.874C78.5714 165.874 78.4926 165.803 78.358 165.678C78.2208 165.556 78.0249 165.375 77.7861 165.173Z" fill="#647787"/>
<path opacity="0.8" d="M100.822 120.488C100.46 120.176 100.068 119.852 99.6783 119.53C99.2831 119.209 98.8879 118.887 98.5138 118.595C98.1394 118.298 97.7835 118.032 97.482 117.8C97.1806 117.567 96.918 117.385 96.7386 117.251C96.626 117.172 96.5481 117.118 96.5046 117.084L96.5072 117.081L100.89 112.085L96.4118 117.012L96.404 117.021L96.3991 117.032L92.1359 127.571L87.9068 138.125L83.7119 148.693L81.6236 153.97L79.5588 159.267L79.5539 159.279L79.5655 159.289L81.2672 160.95L79.6004 159.268L81.7483 154.018L83.8843 148.753L88.1248 138.204L92.334 127.643L96.4994 117.09C96.5432 117.129 96.6107 117.195 96.7073 117.286C96.8737 117.435 97.1024 117.655 97.3911 117.907C97.6769 118.157 98.0071 118.457 98.3737 118.764C98.7351 119.076 99.1276 119.4 99.5173 119.722C99.9124 120.043 100.308 120.365 100.682 120.657C101.056 120.954 101.412 121.22 101.713 121.452C102.015 121.685 102.277 121.867 102.457 122.001C102.639 122.132 102.743 122.203 102.743 122.203C102.743 122.203 102.649 122.114 102.485 121.963C102.319 121.814 102.09 121.594 101.802 121.342C101.513 121.095 101.183 120.795 100.822 120.488Z" fill="#647787"/>
<path opacity="0.8" d="M77.7216 164.821C77.4829 164.618 77.2058 164.376 76.898 164.128C76.5956 163.879 76.265 163.62 75.9369 163.359C75.6037 163.103 75.2731 162.845 74.9551 162.613C74.6397 162.379 74.3395 162.168 74.0851 161.983C73.8307 161.798 73.6093 161.658 73.4565 161.553C73.301 161.451 73.2147 161.395 73.2147 161.395C73.2147 161.395 73.2935 161.465 73.4281 161.591C73.5653 161.713 73.7583 161.891 73.9971 162.093C74.2358 162.296 74.5129 162.538 74.8208 162.787C75.1231 163.036 75.4538 163.294 75.7818 163.556C76.115 163.811 76.4456 164.07 76.7636 164.301C77.079 164.536 77.3792 164.746 77.6336 164.931C77.888 165.117 78.1094 165.256 78.2623 165.361C78.4148 165.461 78.504 165.52 78.504 165.52C78.504 165.52 78.4252 165.449 78.2906 165.324C78.1534 165.201 77.963 165.021 77.7216 164.821Z" fill="#AEC1CE"/>
<path d="M100.754 120.134C100.393 119.822 100 119.498 99.6106 119.176C99.2155 118.855 98.8203 118.533 98.4462 118.241C98.0718 117.944 97.7158 117.678 97.4144 117.446C97.113 117.213 96.8504 117.031 96.6736 116.894C96.5639 116.817 96.4831 116.761 96.4396 116.727L96.4422 116.725L100.825 111.728L96.3468 116.655L96.339 116.664L96.3341 116.675L92.068 127.212L87.8389 137.765L83.6439 148.334L81.5618 153.621L79.3859 159.307L79.381 159.319L79.3927 159.329L81.0973 160.993L79.4304 159.311L81.6895 153.672L83.8254 148.407L88.0659 137.858L92.2752 127.297L96.4406 116.744C96.4843 116.783 96.5518 116.849 96.6485 116.94C96.8149 117.089 97.0435 117.309 97.3322 117.561C97.618 117.811 97.9482 118.111 98.3148 118.418C98.6762 118.73 99.0688 119.054 99.4584 119.376C99.8536 119.697 100.249 120.019 100.623 120.311C100.994 120.606 101.353 120.874 101.655 121.106C101.956 121.338 102.219 121.52 102.398 121.654C102.58 121.785 102.684 121.857 102.684 121.857C102.684 121.857 102.59 121.768 102.432 121.616C102.266 121.468 102.037 121.248 101.748 120.995C101.448 120.743 101.118 120.443 100.754 120.134Z" fill="#AEC1CE"/>
<path d="M123.249 76.9499C123.249 76.9499 119.358 72.4632 114.747 70.0352C114.747 70.0352 110.205 72.2712 108.441 77.0972C108.441 77.0972 111.357 80.8241 116.168 83.9976L123.249 76.9499Z" fill="#EAF3F9"/>
<path opacity="0.4" d="M116.165 83.9953L123.249 76.9503C123.249 76.9503 119.358 72.4635 114.747 70.0355C114.747 70.0355 114.41 70.2015 113.886 70.5416C114.841 71.017 117.008 72.0753 116.265 72.766C115.959 73.0494 114.726 73.9895 114.24 74.5049C113.39 75.4039 112.74 75.8731 112.317 76.0938C111.701 76.4142 110.105 77.2086 109.594 76.3116C109.397 75.968 109.326 75.6005 109.33 75.2261C108.994 75.8023 108.691 76.4237 108.444 77.1002C108.438 77.095 111.354 80.8219 116.165 83.9953ZM114.382 75.3035C114.942 74.5178 116.868 72.6376 117.738 73.0319C118.31 73.2906 118.668 73.5947 119.106 74.0384C119.288 74.2221 119.236 74.5162 118.271 74.8146C117.16 75.1602 116.595 75.2753 115.087 75.6184C114.789 75.6879 114.053 75.7656 114.382 75.3035Z" fill="#697784"/>
<path opacity="0.3" d="M113.218 70.9951C114.11 70.3487 114.746 70.0355 114.746 70.0355C119.355 72.4664 123.248 76.9502 123.248 76.9502L121.784 78.408C119.306 75.5184 116.465 73.0235 113.218 70.9951Z" fill="#697784"/>
<path opacity="0.3" d="M108.438 77.0946C108.841 75.9907 109.39 75.0227 109.997 74.1845C111.415 75.8229 112.93 77.3173 114.546 78.7865C115.744 79.8719 116.945 80.9654 118.238 81.9262L116.16 83.9952C111.354 80.8215 108.438 77.0946 108.438 77.0946Z" fill="#697784"/>
<path opacity="0.5" d="M117.797 71.9724C117.797 71.9724 117.228 72.304 116.433 72.895C116.239 73.0473 116.021 73.2038 115.801 73.3854C115.581 73.5614 115.345 73.7493 115.115 73.9591C114.88 74.1582 114.646 74.3793 114.409 74.6034C114.172 74.8274 113.947 75.0674 113.711 75.3026C113.489 75.5507 113.265 75.7907 113.054 76.0383C112.849 76.291 112.642 76.5356 112.462 76.7897C112.282 77.0438 112.099 77.2787 111.955 77.528C111.811 77.7718 111.66 77.9993 111.542 78.2139C111.424 78.434 111.325 78.6392 111.238 78.8187C111.145 78.9986 111.094 79.1678 111.038 79.3012C110.934 79.5705 110.876 79.7234 110.876 79.7234C110.876 79.7234 110.951 79.5751 111.083 79.3209C111.151 79.1923 111.216 79.0306 111.321 78.8611C111.425 78.6917 111.541 78.4966 111.665 78.2873C111.795 78.0776 111.952 77.8663 112.108 77.633C112.264 77.3997 112.459 77.1752 112.639 76.9266C112.822 76.6806 113.039 76.4494 113.241 76.1996C113.452 75.9576 113.676 75.7176 113.896 75.4778C114.126 75.243 114.346 75.0033 114.58 74.7822C114.814 74.5611 115.034 74.3324 115.263 74.1282C115.487 73.9187 115.709 73.7177 115.917 73.5312C116.125 73.3393 116.332 73.1724 116.517 73.0122C116.896 72.6997 117.208 72.4326 117.439 72.256C117.664 72.0742 117.797 71.9724 117.797 71.9724Z" fill="#647787"/>
<path d="M159.641 75.7123C158.854 75.377 157.834 74.6863 156.654 73.6331C154.789 71.9674 153.579 70.2839 153.949 69.8693C154.319 69.4548 156.131 70.4694 157.994 72.1326C159.092 73.1127 159.957 74.095 160.414 74.8286C160.414 75.2278 160.081 75.6015 159.641 75.7123Z" fill="#94A1AC"/>
<path opacity="0.3" d="M153.946 69.8723C154.317 69.4577 156.129 70.4723 157.991 72.1355C159.089 73.1157 159.954 74.0979 160.411 74.8316C160.41 74.9148 160.396 74.996 160.367 75.0753L159.84 74.437C159.478 74.1138 158.747 74.8093 159.109 75.1326L159.858 75.6335C159.788 75.6707 159.715 75.6998 159.638 75.7208C158.851 75.3855 157.831 74.6948 156.652 73.6416C154.786 71.9703 153.576 70.2868 153.946 69.8723Z" fill="#697784"/>
<path opacity="0.3" d="M158.908 74.717C158.785 74.8487 158.671 74.9882 158.574 75.1323C157.998 74.7602 157.349 74.2646 156.649 73.639C154.783 71.9732 153.574 70.2898 153.944 69.8752C154.314 69.4606 156.126 70.4753 157.989 72.1384C158.754 72.8214 159.402 73.5055 159.882 74.1075C159.528 74.2689 159.201 74.4066 158.908 74.717Z" fill="#697784"/>
<path d="M149.041 83.1166C148.254 82.7813 147.234 82.0906 146.055 81.0374C144.192 79.3743 142.979 77.6882 143.35 77.2736C143.72 76.8591 145.532 77.8737 147.394 79.5369C148.492 80.517 149.357 81.4993 149.814 82.2329C149.812 82.6295 149.478 83.0032 149.041 83.1166Z" fill="#94A1AC"/>
<path opacity="0.3" d="M143.347 77.2766C143.717 76.862 145.529 77.8766 147.392 79.5398C148.489 80.52 149.354 81.5022 149.812 82.2359C149.811 82.3191 149.796 82.4003 149.767 82.4796L149.24 81.8413C148.878 81.5181 148.147 82.2136 148.509 82.5369L149.258 83.0378C149.191 83.0721 149.115 83.1041 149.039 83.1251C148.252 82.7898 147.232 82.0991 146.052 81.0459C144.186 79.3746 142.977 77.6911 143.347 77.2766Z" fill="#697784"/>
<path opacity="0.3" d="M148.308 82.1215C148.185 82.2532 148.071 82.3927 147.974 82.5368C147.399 82.1646 146.752 81.6662 146.049 81.0379C144.186 79.3748 142.974 77.6887 143.344 77.2741C143.714 76.8596 145.526 77.8742 147.389 79.5374C148.153 80.2203 148.802 80.9044 149.282 81.5064C148.929 81.6734 148.601 81.8111 148.308 82.1215Z" fill="#697784"/>
<path d="M128.151 98.2079C127.364 97.8726 126.344 97.1819 125.164 96.1288C123.302 94.4656 122.089 92.7795 122.46 92.3649C122.83 91.9504 124.642 92.965 126.504 94.6282C127.602 95.6084 128.467 96.5906 128.924 97.3243C128.924 97.7179 128.591 98.0916 128.151 98.2079Z" fill="#94A1AC"/>
<path opacity="0.3" d="M122.46 92.365C122.83 91.9504 124.642 92.965 126.504 94.6282C127.602 95.6084 128.467 96.5906 128.924 97.3243C128.924 97.4075 128.909 97.4887 128.88 97.5679L128.353 96.9297C127.991 96.6064 127.26 97.302 127.622 97.6252L128.371 98.1262C128.304 98.1605 128.228 98.1925 128.151 98.2134C127.365 97.8782 126.344 97.1875 125.165 96.1343C123.299 94.463 122.09 92.7795 122.46 92.365Z" fill="#697784"/>
<path opacity="0.3" d="M127.421 97.2099C127.298 97.3416 127.187 97.4781 127.087 97.6252C126.512 97.253 125.866 96.7601 125.159 96.1292C123.296 94.4661 122.084 92.78 122.454 92.3654C122.824 91.9509 124.636 92.9655 126.499 94.6287C127.264 95.3117 127.912 95.9957 128.393 96.5978C128.042 96.7618 127.711 96.9024 127.421 97.2099Z" fill="#697784"/>
<path d="M138.596 90.6649C137.809 90.3297 136.789 89.6389 135.609 88.5858C133.747 86.9226 132.534 85.2365 132.904 84.822C133.275 84.4074 135.087 85.422 136.949 87.0852C138.047 88.0654 138.912 89.0476 139.369 89.7813C139.369 90.1749 139.035 90.5486 138.596 90.6649Z" fill="#94A1AC"/>
<path opacity="0.3" d="M132.902 84.8195C133.272 84.405 135.084 85.4196 136.946 87.0828C138.044 88.0629 138.909 89.0452 139.366 89.7789C139.365 89.8621 139.351 89.9433 139.322 90.0225L138.798 89.3869C138.436 89.0636 137.705 89.7592 138.067 90.0824L138.816 90.5834C138.746 90.6206 138.673 90.6497 138.596 90.6706C137.809 90.3354 136.789 89.6446 135.61 88.5915C133.744 86.9202 132.531 85.2341 132.902 84.8195Z" fill="#697784"/>
<path opacity="0.3" d="M137.866 89.6669C137.743 89.7986 137.629 89.9381 137.532 90.0822C136.956 89.71 136.313 89.2142 135.606 88.5833C133.744 86.9202 132.531 85.2341 132.901 84.8195C133.272 84.405 135.084 85.4196 136.946 87.0828C137.711 87.7658 138.36 88.4498 138.84 89.0519C138.483 89.2162 138.156 89.3539 137.866 89.6669Z" fill="#697784"/>
<path d="M87.1758 82.3721C87.1758 82.3721 165.282 64.5991 166.604 64.882C167.926 65.1648 168.868 67.1295 168.868 67.1295L115.239 105.3L87.1758 82.3721Z" fill="#EAF3F9"/>
<path d="M139.463 70.6079C154.033 67.3778 166.091 64.7749 166.604 64.8817C167.926 65.1645 168.868 67.1292 168.868 67.1292L150.338 80.3184L139.463 70.6079Z" fill="#146B83"/>
<path d="M123.356 74.2021C125.292 73.7684 127.232 73.3343 129.173 72.9002L143.181 85.4078L139.133 88.2895L123.356 74.2021Z" fill="#146B83"/>
<path opacity="0.4" d="M166.154 65.2619C166.154 65.2619 98.6277 79.9888 97.2831 80.2312C95.9415 80.4761 99.1842 83.2615 100.872 84.7683L167.126 65.6782C167.123 65.6811 167.026 65.0435 166.154 65.2619Z" fill="white"/>
<path opacity="0.5" d="M98.3857 79.8254C96.8102 80.444 96.8913 81.3874 97.2909 81.8859C97.7145 82.4163 108.235 91.5426 110.173 93.2209C113.356 95.9792 116.65 97.6612 119.183 96.7168C122.47 95.4914 164.433 68.8356 166.868 67.007C167.381 66.6204 166.68 65.2381 166.149 65.2681C165.447 65.3078 164.706 65.3802 164.144 65.2928C165.602 65.0052 166.472 64.8589 166.604 64.8875C167.926 65.1703 168.869 67.135 168.869 67.135L115.236 105.298L87.1758 82.3721C87.1729 82.3695 91.6118 81.3589 98.3857 79.8254Z" fill="#C1CCD5"/>
<path opacity="0.5" d="M93.9362 85.995C96.2405 87.5279 98.5477 89.0633 100.901 90.5241C102.811 91.7106 104.8 92.7679 106.7 93.9605C110.652 96.4452 114.942 101.43 119.634 99.1083C125.062 96.4257 156.688 75.5991 159.238 73.9775L115.232 105.289L87.1724 82.3638C87.1724 82.3638 87.5473 82.2788 88.2371 82.1234C90.2291 83.3302 92.1188 84.7867 93.9362 85.995Z" fill="#C1CCD5"/>
<path opacity="0.8" d="M162.252 70.5774C162.024 70.3631 161.752 70.1151 161.47 69.8372C161.189 69.5648 160.895 69.2655 160.598 68.969C160.307 68.6667 160.012 68.3674 159.747 68.0775C159.478 67.7905 159.235 67.516 159.023 67.2841C158.81 67.0522 158.646 66.848 158.524 66.708C158.405 66.565 158.34 66.4856 158.34 66.4856C158.34 66.4856 158.419 66.5559 158.558 66.6755C158.696 66.7981 158.894 66.9698 159.125 67.1868C159.351 67.4041 159.625 67.6491 159.907 67.927C160.189 68.1994 160.486 68.5014 160.78 68.7952C161.071 69.0975 161.365 69.3969 161.631 69.6868C161.9 69.9737 162.142 70.2483 162.355 70.4802C162.568 70.7121 162.732 70.9162 162.853 71.0563C162.969 71.1966 163.038 71.2787 163.038 71.2787C163.038 71.2787 162.959 71.2083 162.819 71.0887C162.684 70.9633 162.481 70.7918 162.252 70.5774Z" fill="#647787"/>
<path opacity="0.8" d="M120.453 98.502C120.103 98.1782 119.736 97.8247 119.372 97.4738C119.009 97.1174 118.645 96.761 118.312 96.4222C117.974 96.0837 117.671 95.76 117.406 95.4867C117.141 95.2134 116.93 94.973 116.774 94.8127C116.683 94.7098 116.62 94.6385 116.582 94.5991L116.579 94.602L112.109 99.5201L116.5 94.515L116.507 94.5063L116.518 94.5001L126.509 89.0758L136.519 83.6837L146.547 78.3238L151.566 75.6588L156.597 73.0098L156.61 73.0007L156.622 73.0111L158.467 74.5173L156.607 73.0508L151.633 75.777L146.642 78.493L136.639 83.8959L126.62 89.2691L116.604 94.5978C116.648 94.6369 116.721 94.6966 116.822 94.7823C116.989 94.9309 117.233 95.1333 117.517 95.3917C117.797 95.6475 118.133 95.9417 118.478 96.2714C118.829 96.5953 119.196 96.9488 119.559 97.2997C119.923 97.6561 120.287 98.0125 120.62 98.3513C120.957 98.6897 121.261 99.0135 121.526 99.2868C121.791 99.5601 122.002 99.8005 122.158 99.9607C122.308 100.127 122.391 100.222 122.391 100.222C122.391 100.222 122.292 100.139 122.121 99.9961C121.954 99.8475 121.71 99.6451 121.427 99.3867C121.132 99.1234 120.799 98.8262 120.453 98.502Z" fill="#647787"/>
<path opacity="0.8" d="M161.897 70.5536C161.668 70.3392 161.397 70.0912 161.115 69.8133C160.833 69.541 160.539 69.2416 160.242 68.9451C159.951 68.6429 159.657 68.3435 159.391 68.0536C159.122 67.7667 158.88 67.4921 158.667 67.2602C158.454 67.0283 158.29 66.8241 158.169 66.6841C158.05 66.5411 157.984 66.4617 157.984 66.4617C157.984 66.4617 158.063 66.5321 158.203 66.6517C158.34 66.7742 158.538 66.9459 158.767 67.1603C158.992 67.3776 159.267 67.6227 159.548 67.9005C159.83 68.1729 160.127 68.4694 160.421 68.7687C160.712 69.071 161.007 69.3704 161.272 69.6603C161.541 69.9472 161.784 70.2218 161.996 70.4537C162.209 70.6856 162.373 70.8897 162.495 71.0298C162.611 71.1701 162.679 71.2522 162.679 71.2522C162.679 71.2522 162.6 71.1818 162.46 71.0622C162.323 70.9397 162.122 70.7709 161.897 70.5536Z" fill="#AEC1CE"/>
<path d="M120.092 98.4781C119.741 98.1542 119.375 97.8007 119.011 97.4499C118.647 97.0935 118.283 96.7371 117.951 96.3983C117.613 96.0598 117.309 95.736 117.044 95.4627C116.779 95.1894 116.569 94.9491 116.415 94.7859C116.327 94.6856 116.261 94.6117 116.223 94.5722L116.221 94.5752L111.75 99.4932L116.141 94.4882L116.149 94.4794L116.159 94.4733L126.147 89.0463L136.157 83.6542L146.185 78.2943L151.204 75.6293L156.611 72.8232L156.622 72.8171L156.634 72.8275L158.479 74.3336L156.619 72.8671L151.272 75.7475L146.28 78.4636L136.277 83.8664L126.258 89.2397L116.242 94.5684C116.286 94.6075 116.359 94.6671 116.461 94.7528C116.627 94.9014 116.871 95.1038 117.155 95.3622C117.435 95.618 117.771 95.9123 118.117 96.242C118.468 96.5659 118.834 96.9193 119.198 97.2702C119.561 97.6266 119.925 97.983 120.258 98.3218C120.593 98.6577 120.9 98.9841 121.164 99.2574C121.429 99.5307 121.64 99.771 121.793 99.9342C121.944 100.1 122.027 100.195 122.027 100.195C122.027 100.195 121.928 100.112 121.759 99.9721C121.593 99.8236 121.349 99.6212 121.065 99.3628C120.776 99.0992 120.44 98.8049 120.092 98.4781Z" fill="#AEC1CE"/>
<path d="M47.1134 52.8795C43.2761 57.1768 49.6925 69.1713 61.446 79.6665C71.6873 88.8113 154.622 158.113 178.347 172.965C178.928 172.549 179.474 172.067 179.97 171.512C180.465 170.957 180.883 170.36 181.23 169.736C163.798 147.836 85.587 73.2451 75.3457 64.1003C63.5896 53.608 50.9507 48.5821 47.1134 52.8795Z" fill="#EAF4F9"/>
<path opacity="0.4" d="M47.1134 52.8795C43.2761 57.1768 49.6925 69.1713 61.446 79.6665C71.6873 88.8113 154.622 158.113 178.347 172.965C178.928 172.549 179.474 172.067 179.97 171.512C180.465 170.957 180.883 170.36 181.23 169.736C163.798 147.836 85.587 73.2451 75.3457 64.1003C63.5896 53.608 50.9507 48.5821 47.1134 52.8795ZM67.6783 67.0869C70.1908 69.556 147.981 140.587 150.619 143.168C153.257 145.749 146.18 140.747 149.051 145.084C151.923 149.417 148.198 148.871 143.3 144.918C138.403 140.965 82.33 93.928 79.7104 91.6728C77.0909 89.4177 66.423 80.2277 62.0881 76.0211C57.7532 71.8145 55.8415 69.4306 56.8335 68.8839C57.8254 68.3371 57.1226 68.2134 57.1226 68.2134C57.1226 68.2134 52.2656 62.0765 54.3036 59.2946C56.3417 56.5127 65.1659 64.6178 67.6783 67.0869Z" fill="#A1B2C1"/>
<path d="M50.6816 63.4799C50.6816 63.4799 46.9832 57.9317 49.547 54.9371C52.1082 51.9454 59.019 55.5295 59.019 55.5295C59.019 55.5295 53.3806 53.4174 50.8742 56.3478C48.3622 59.2785 50.6816 63.4799 50.6816 63.4799Z" fill="#EAF4F9"/>
<path opacity="0.5" d="M47.1134 52.8795C43.2761 57.1768 49.6925 69.1713 61.446 79.6665C71.6873 88.8113 154.622 158.113 178.347 172.965C178.928 172.549 179.474 172.067 179.97 171.512C179.678 171.839 179.329 172.1 178.939 172.302C155.774 157.657 73.1629 87.2587 62.9654 78.153C51.2615 67.7022 45.4086 55.9169 47.6766 53.3771C49.9419 50.8401 61.2678 57.2542 72.9717 67.705C83.1692 76.8107 162.008 150.017 180.641 170.39C180.484 170.801 180.264 171.176 179.972 171.503C180.467 170.949 180.885 170.351 181.233 169.727C163.8 147.828 85.5893 73.2366 75.348 64.0918C63.5896 53.608 50.9507 48.5821 47.1134 52.8795Z" fill="#A1B2C1"/>
<path opacity="0.4" d="M199.519 141.109C198.768 141.215 175.396 148.051 164.522 151.238C163.008 149.655 161.43 148.02 159.805 146.343C155.581 145.038 149.28 143.221 148.756 143.808L155.057 150.531C155.057 150.531 172.897 166.881 175.545 168.07C176.557 168.522 178.642 168.92 180.831 169.243C180.089 168.328 179.256 167.328 178.327 166.252L205.988 145.206C205.99 145.203 200.495 140.973 199.519 141.109Z" fill="url(#paint0_linear_3625_285)"/>
<path d="M148.759 143.811C149.932 142.497 161.121 151.48 164.496 154.494C167.87 157.507 176.701 167.245 176.031 167.995C175.361 168.745 164.96 161.142 161.212 157.795C157.46 154.445 148.089 144.561 148.759 143.811Z" fill="#146B83"/>
<path d="M148.759 143.811C148.089 144.561 157.463 154.448 161.212 157.795C164.963 161.145 175.361 168.745 176.031 167.995C176.107 167.91 172.231 166.874 161.593 157.239C149.22 146.027 148.848 143.712 148.759 143.811Z" fill="white"/>
<path d="M148.76 143.811C148.723 143.852 149.841 144.362 149.864 144.461L174.794 166.554C175.025 166.624 175.969 168.07 176.034 167.997C176.704 167.247 167.874 157.51 164.499 154.496C161.121 151.48 149.93 142.5 148.76 143.811Z" fill="#C1CCD5"/>
<path fill-rule="evenodd" clip-rule="evenodd" d="M66.5465 81.1879C66.1389 81.6267 65.4626 80.9914 65.8731 80.5552C66.284 80.1245 66.9541 80.7491 66.5465 81.1879Z" fill="#51524A"/>
<path fill-rule="evenodd" clip-rule="evenodd" d="M68.4663 82.9341C68.0672 83.3752 67.3727 82.7603 67.78 82.3159C68.182 81.8774 68.8707 82.4871 68.4663 82.9341Z" fill="#51524A"/>
<path fill-rule="evenodd" clip-rule="evenodd" d="M70.394 84.6655C69.9952 85.1121 69.3088 84.494 69.7077 84.0473C70.1094 83.6033 70.7903 84.2217 70.394 84.6655Z" fill="#51524A"/>
<path fill-rule="evenodd" clip-rule="evenodd" d="M72.3241 86.3997C71.9255 86.8519 71.2391 86.2338 71.6351 85.7845C72.0339 85.3378 72.7174 85.9534 72.3241 86.3997C72.4935 86.21 72.1575 86.5921 72.3241 86.3997Z" fill="#51524A"/>
<path fill-rule="evenodd" clip-rule="evenodd" d="M74.2965 88.0869C73.9061 88.5359 73.2015 87.9382 73.5945 87.4863C73.9849 87.0373 74.6895 87.635 74.2965 88.0869Z" fill="#51524A"/>
<path fill-rule="evenodd" clip-rule="evenodd" d="M76.2653 89.7719C75.8752 90.2264 75.1732 89.6258 75.5632 89.1713C75.9563 88.7194 76.6553 89.3174 76.2653 89.7719C76.4318 89.5795 76.1016 89.9669 76.2653 89.7719Z" fill="#51524A"/>
<path fill-rule="evenodd" clip-rule="evenodd" d="M78.2375 91.4596C77.8503 91.9167 77.1509 91.3131 77.5354 90.8589C77.9255 90.4045 78.622 91.0054 78.2375 91.4596C78.4011 91.2646 78.0712 91.6575 78.2375 91.4596Z" fill="#51524A"/>
<path fill-rule="evenodd" clip-rule="evenodd" d="M80.2068 93.15C79.82 93.6126 79.1232 93.0062 79.5048 92.5494C79.8917 92.0868 80.5885 92.6932 80.2068 93.15Z" fill="#51524A"/>
<path fill-rule="evenodd" clip-rule="evenodd" d="M82.2204 94.7848C81.8417 95.2442 81.1188 94.667 81.5031 94.2073C81.8818 93.7479 82.6017 94.3225 82.2204 94.7848C82.3811 94.5873 82.0568 94.9798 82.2204 94.7848Z" fill="#51524A"/>
<path fill-rule="evenodd" clip-rule="evenodd" d="M84.2366 96.4173C83.8608 96.8793 83.138 96.302 83.5193 95.8397C83.8977 95.3748 84.6177 95.9494 84.2366 96.4173C84.3999 96.2168 84.073 96.6122 84.2366 96.4173Z" fill="#51524A"/>
<path fill-rule="evenodd" clip-rule="evenodd" d="M86.2522 98.0443C85.8767 98.5118 85.159 97.9287 85.5349 97.4667C85.9133 97.0018 86.6306 97.5794 86.2522 98.0443Z" fill="#51524A"/>
<path fill-rule="evenodd" clip-rule="evenodd" d="M88.2709 99.6733C87.8954 100.141 87.1807 99.5604 87.5535 99.0958C87.929 98.6282 88.6438 99.2087 88.2709 99.6733C88.4316 99.4758 88.1105 99.8765 88.2709 99.6733Z" fill="#51524A"/>
<path fill-rule="evenodd" clip-rule="evenodd" d="M90.2871 101.306C89.9145 101.776 89.1995 101.19 89.5698 100.728C89.945 100.255 90.6571 100.839 90.2871 101.306C90.4475 101.103 90.1294 101.506 90.2871 101.306Z" fill="#51524A"/>
<path fill-rule="evenodd" clip-rule="evenodd" d="M92.3107 102.929C91.941 103.402 91.2208 102.822 91.5907 102.355C91.9604 101.882 92.6806 102.462 92.3107 102.929C92.4684 102.729 92.1529 103.13 92.3107 102.929Z" fill="#51524A"/>
<path fill-rule="evenodd" clip-rule="evenodd" d="M94.34 104.547C93.9703 105.02 93.2501 104.44 93.62 103.972C93.9897 103.5 94.707 104.077 94.34 104.547C94.4977 104.347 94.1822 104.747 94.34 104.547Z" fill="#51524A"/>
<path fill-rule="evenodd" clip-rule="evenodd" d="M96.3717 106.162C95.9991 106.632 95.2818 106.054 95.6518 105.587C96.0188 105.117 96.7388 105.692 96.3717 106.162Z" fill="#51524A"/>
<path fill-rule="evenodd" clip-rule="evenodd" d="M98.3979 107.777C98.0283 108.25 97.308 107.669 97.678 107.202C98.0505 106.732 98.7679 107.31 98.3979 107.777C98.5557 107.577 98.2401 107.977 98.3979 107.777Z" fill="#51524A"/>
<path fill-rule="evenodd" clip-rule="evenodd" d="M100.43 109.392C100.057 109.862 99.3399 109.284 99.7099 108.817C100.077 108.347 100.8 108.925 100.43 109.392C100.588 109.192 100.269 109.595 100.43 109.392Z" fill="#51524A"/>
<path fill-rule="evenodd" clip-rule="evenodd" d="M102.459 111.009C102.086 111.48 101.369 110.902 101.739 110.435C102.106 109.965 102.829 110.542 102.459 111.009Z" fill="#51524A"/>
<path fill-rule="evenodd" clip-rule="evenodd" d="M104.488 112.627C104.115 113.098 103.395 112.523 103.768 112.053C104.138 111.58 104.861 112.157 104.488 112.627Z" fill="#51524A"/>
<path fill-rule="evenodd" clip-rule="evenodd" d="M106.517 114.24C106.144 114.71 105.424 114.135 105.797 113.665C106.167 113.198 106.887 113.772 106.517 114.24C106.674 114.039 106.359 114.44 106.517 114.24Z" fill="#51524A"/>
<path fill-rule="evenodd" clip-rule="evenodd" d="M108.545 115.857C108.173 116.327 107.453 115.753 107.825 115.283C108.198 114.813 108.918 115.387 108.545 115.857C108.703 115.657 108.388 116.058 108.545 115.857Z" fill="#51524A"/>
<path fill-rule="evenodd" clip-rule="evenodd" d="M110.577 117.472C110.205 117.942 109.482 117.365 109.857 116.897C110.227 116.43 110.947 117.005 110.577 117.472Z" fill="#51524A"/>
<path fill-rule="evenodd" clip-rule="evenodd" d="M112.604 119.087C112.228 119.555 111.508 118.98 111.884 118.513C112.254 118.045 112.979 118.62 112.604 119.087C112.764 118.89 112.446 119.287 112.604 119.087Z" fill="#51524A"/>
<path fill-rule="evenodd" clip-rule="evenodd" d="M114.633 120.705C114.26 121.169 113.537 120.597 113.913 120.13C114.285 119.66 115.008 120.237 114.633 120.705Z" fill="#51524A"/>
<path fill-rule="evenodd" clip-rule="evenodd" d="M116.664 122.32C116.291 122.784 115.569 122.213 115.944 121.745C116.314 121.278 117.034 121.853 116.664 122.32C116.822 122.12 116.503 122.517 116.664 122.32Z" fill="#51524A"/>
<path fill-rule="evenodd" clip-rule="evenodd" d="M118.69 123.935C118.317 124.399 117.595 123.828 117.97 123.36C118.343 122.896 119.066 123.467 118.69 123.935Z" fill="#51524A"/>
<path fill-rule="evenodd" clip-rule="evenodd" d="M120.722 125.55C120.349 126.014 119.627 125.442 120.002 124.975C120.375 124.51 121.095 125.085 120.722 125.55C120.883 125.352 120.562 125.753 120.722 125.55Z" fill="#51524A"/>
<path fill-rule="evenodd" clip-rule="evenodd" d="M122.746 127.173C122.371 127.64 121.653 127.063 122.029 126.595C122.401 126.125 123.119 126.708 122.746 127.173C122.907 126.975 122.585 127.37 122.746 127.173Z" fill="#51524A"/>
<path fill-rule="evenodd" clip-rule="evenodd" d="M124.767 128.799C124.392 129.267 123.677 128.686 124.05 128.222C124.426 127.754 125.14 128.335 124.767 128.799Z" fill="#51524A"/>
<path fill-rule="evenodd" clip-rule="evenodd" d="M126.788 130.426C126.413 130.893 125.698 130.313 126.071 129.848C126.444 129.384 127.161 129.961 126.788 130.426C126.946 130.226 126.625 130.626 126.788 130.426Z" fill="#51524A"/>
<path fill-rule="evenodd" clip-rule="evenodd" d="M128.807 132.055C128.432 132.523 127.717 131.942 128.09 131.478C128.462 131.008 129.183 131.588 128.807 132.055C128.968 131.852 128.646 132.253 128.807 132.055Z" fill="#51524A"/>
<path fill-rule="evenodd" clip-rule="evenodd" d="M130.829 133.682C130.453 134.149 129.733 133.569 130.111 133.104C130.484 132.634 131.204 133.214 130.829 133.682C130.989 133.479 130.668 133.879 130.829 133.682Z" fill="#51524A"/>
<path fill-rule="evenodd" clip-rule="evenodd" d="M132.847 135.306C132.472 135.773 131.751 135.193 132.13 134.728C132.505 134.26 133.226 134.841 132.847 135.306C133.008 135.108 132.689 135.506 132.847 135.306Z" fill="#51524A"/>
<path fill-rule="evenodd" clip-rule="evenodd" d="M134.868 136.932C134.493 137.399 133.772 136.819 134.151 136.354C134.524 135.89 135.247 136.467 134.868 136.932Z" fill="#51524A"/>
<path fill-rule="evenodd" clip-rule="evenodd" d="M136.89 138.559C136.517 139.023 135.794 138.446 136.172 137.981C136.545 137.516 137.265 138.097 136.89 138.559Z" fill="#51524A"/>
<path fill-rule="evenodd" clip-rule="evenodd" d="M138.911 140.185C138.538 140.65 137.815 140.072 138.193 139.607C138.566 139.143 139.286 139.723 138.911 140.185C139.071 139.987 138.75 140.388 138.911 140.185Z" fill="#51524A"/>
<path fill-rule="evenodd" clip-rule="evenodd" d="M77.5074 68.8957C77.8945 68.4386 77.1844 67.8412 76.8001 68.3009C76.4214 68.7603 77.1202 69.3528 77.5074 68.8957Z" fill="#51524A"/>
<path fill-rule="evenodd" clip-rule="evenodd" d="M79.4659 70.5919C79.8563 70.143 79.1618 69.5281 78.7717 69.9826C78.3872 70.4367 79.0758 71.0464 79.4659 70.5919Z" fill="#51524A"/>
<path fill-rule="evenodd" clip-rule="evenodd" d="M81.4199 72.2997C81.8159 71.8505 81.1191 71.244 80.7257 71.6904C80.3327 72.1423 81.024 72.749 81.4199 72.2997Z" fill="#51524A"/>
<path fill-rule="evenodd" clip-rule="evenodd" d="M83.3708 74.0107C83.7722 73.5611 83.0754 72.9546 82.6792 73.3984C82.2807 73.8506 82.9745 74.4544 83.3708 74.0107C83.5402 73.8209 83.2013 74.2004 83.3708 74.0107Z" fill="#51524A"/>
<path fill-rule="evenodd" clip-rule="evenodd" d="M85.2807 75.7682C85.6798 75.327 85.0039 74.6972 84.5995 75.1442C84.2029 75.5824 84.876 76.2096 85.2807 75.7682Z" fill="#51524A"/>
<path fill-rule="evenodd" clip-rule="evenodd" d="M87.1898 77.5204C87.5945 77.079 86.9133 76.455 86.5087 76.8964C86.1069 77.3405 86.7851 77.9619 87.1898 77.5204C87.3622 77.3333 87.0148 77.7105 87.1898 77.5204Z" fill="#51524A"/>
<path fill-rule="evenodd" clip-rule="evenodd" d="M89.099 79.2779C89.5066 78.839 88.8255 78.2151 88.4178 78.6539C88.0132 79.0954 88.694 79.7138 89.099 79.2779C89.2714 79.0907 88.9266 79.465 89.099 79.2779Z" fill="#51524A"/>
<path fill-rule="evenodd" clip-rule="evenodd" d="M91.0088 81.0354C91.4219 80.5963 90.7355 79.9781 90.3276 80.4115C89.9171 80.8477 90.6035 81.4658 91.0088 81.0354Z" fill="#51524A"/>
<path fill-rule="evenodd" clip-rule="evenodd" d="M92.8737 82.8371C93.2845 82.4064 92.6268 81.7562 92.2137 82.1953C91.8054 82.6231 92.4602 83.2708 92.8737 82.8371C93.0489 82.6526 92.6984 83.0217 92.8737 82.8371Z" fill="#51524A"/>
<path fill-rule="evenodd" clip-rule="evenodd" d="M94.7331 84.6443C95.1469 84.2162 94.4866 83.5688 94.0731 84.0025C93.6593 84.4306 94.3167 85.0753 94.7331 84.6443C94.9113 84.4623 94.5552 84.8317 94.7331 84.6443Z" fill="#51524A"/>
<path fill-rule="evenodd" clip-rule="evenodd" d="M96.5901 86.4551C97.0094 86.0267 96.3465 85.3822 95.9301 85.8133C95.5134 86.2388 96.1764 86.8832 96.5901 86.4551Z" fill="#51524A"/>
<path fill-rule="evenodd" clip-rule="evenodd" d="M98.45 88.2621C98.8722 87.8363 98.2066 87.1948 97.79 87.6203C97.3707 88.0487 98.0333 88.6876 98.45 88.2621C98.6311 88.0828 98.2717 88.4441 98.45 88.2621Z" fill="#51524A"/>
<path fill-rule="evenodd" clip-rule="evenodd" d="M100.31 90.0755C100.735 89.6468 100.067 89.0082 99.647 89.4311C99.2248 89.857 99.89 90.4929 100.31 90.0755C100.491 89.8907 100.129 90.2549 100.31 90.0755Z" fill="#51524A"/>
<path fill-rule="evenodd" clip-rule="evenodd" d="M102.164 91.8888C102.589 91.4656 101.929 90.8182 101.509 91.2411C101.079 91.6646 101.742 92.309 102.164 91.8888C102.342 91.7068 101.983 92.0681 102.164 91.8888Z" fill="#51524A"/>
<path fill-rule="evenodd" clip-rule="evenodd" d="M104.011 93.7105C104.436 93.2873 103.776 92.64 103.356 93.0629C102.925 93.4864 103.588 94.1308 104.011 93.7105C104.189 93.5286 103.827 93.8928 104.011 93.7105Z" fill="#51524A"/>
<path fill-rule="evenodd" clip-rule="evenodd" d="M105.852 95.5332C106.277 95.11 105.617 94.4627 105.197 94.8856C104.772 95.3088 105.432 95.9561 105.852 95.5332Z" fill="#51524A"/>
<path fill-rule="evenodd" clip-rule="evenodd" d="M107.699 97.355C108.124 96.9318 107.464 96.2845 107.044 96.7074C106.619 97.1306 107.279 97.7779 107.699 97.355C107.88 97.1757 107.521 97.5369 107.699 97.355Z" fill="#51524A"/>
<path fill-rule="evenodd" clip-rule="evenodd" d="M109.545 99.1773C109.968 98.7514 109.31 98.1067 108.891 98.5296C108.466 98.9528 109.126 99.6002 109.545 99.1773C109.727 98.9979 109.367 99.3592 109.545 99.1773Z" fill="#51524A"/>
<path fill-rule="evenodd" clip-rule="evenodd" d="M111.392 100.999C111.814 100.573 111.157 99.9287 110.737 100.352C110.315 100.777 110.97 101.425 111.392 100.999Z" fill="#51524A"/>
<path fill-rule="evenodd" clip-rule="evenodd" d="M113.236 102.825C113.658 102.399 113.001 101.754 112.581 102.177C112.159 102.603 112.816 103.247 113.236 102.825Z" fill="#51524A"/>
<path fill-rule="evenodd" clip-rule="evenodd" d="M115.082 104.646C115.505 104.221 114.847 103.576 114.428 103.999C114.005 104.425 114.663 105.069 115.082 104.646C115.261 104.464 114.904 104.828 115.082 104.646Z" fill="#51524A"/>
<path fill-rule="evenodd" clip-rule="evenodd" d="M116.929 106.468C117.351 106.043 116.691 105.395 116.274 105.821C115.852 106.247 116.507 106.894 116.929 106.468C117.107 106.287 116.751 106.65 116.929 106.468Z" fill="#51524A"/>
<path fill-rule="evenodd" clip-rule="evenodd" d="M118.776 108.291C119.198 107.865 118.538 107.218 118.121 107.643C117.699 108.069 118.354 108.717 118.776 108.291Z" fill="#51524A"/>
<path fill-rule="evenodd" clip-rule="evenodd" d="M120.62 110.116C121.042 109.69 120.381 109.043 119.965 109.468C119.545 109.891 120.2 110.539 120.62 110.116C120.8 109.931 120.441 110.298 120.62 110.116Z" fill="#51524A"/>
<path fill-rule="evenodd" clip-rule="evenodd" d="M122.466 111.938C122.885 111.509 122.231 110.862 121.811 111.29C121.389 111.716 122.047 112.361 122.466 111.938Z" fill="#51524A"/>
<path fill-rule="evenodd" clip-rule="evenodd" d="M124.313 113.759C124.73 113.334 124.077 112.683 123.658 113.112C123.236 113.538 123.891 114.185 124.313 113.759C124.491 113.578 124.135 113.941 124.313 113.759Z" fill="#51524A"/>
<path fill-rule="evenodd" clip-rule="evenodd" d="M126.16 115.582C126.576 115.156 125.924 114.506 125.505 114.934C125.083 115.36 125.737 116.008 126.16 115.582Z" fill="#51524A"/>
<path fill-rule="evenodd" clip-rule="evenodd" d="M128.004 117.407C128.42 116.981 127.768 116.331 127.346 116.756C126.929 117.182 127.584 117.83 128.004 117.407C128.184 117.222 127.825 117.589 128.004 117.407Z" fill="#51524A"/>
<path fill-rule="evenodd" clip-rule="evenodd" d="M129.855 119.223C130.275 118.795 129.612 118.15 129.195 118.576C128.776 119.004 129.436 119.646 129.855 119.223C130.031 119.039 129.677 119.405 129.855 119.223Z" fill="#51524A"/>
<path fill-rule="evenodd" clip-rule="evenodd" d="M131.712 121.033C132.132 120.605 131.469 119.961 131.052 120.386C130.63 120.817 131.293 121.462 131.712 121.033Z" fill="#51524A"/>
<path fill-rule="evenodd" clip-rule="evenodd" d="M133.567 122.847C133.986 122.418 133.323 121.774 132.907 122.199C132.487 122.628 133.148 123.275 133.567 122.847C133.745 122.665 133.389 123.028 133.567 122.847Z" fill="#51524A"/>
<path fill-rule="evenodd" clip-rule="evenodd" d="M135.421 124.66C135.841 124.231 135.181 123.59 134.761 124.018C134.342 124.441 135.005 125.085 135.421 124.66C135.6 124.478 135.243 124.842 135.421 124.66Z" fill="#51524A"/>
<path fill-rule="evenodd" clip-rule="evenodd" d="M137.276 126.473C137.695 126.045 137.032 125.4 136.615 125.826C136.202 126.254 136.859 126.899 137.276 126.473C137.457 126.288 137.098 126.655 137.276 126.473Z" fill="#51524A"/>
<path fill-rule="evenodd" clip-rule="evenodd" d="M139.133 128.284C139.552 127.855 138.889 127.211 138.475 127.639C138.056 128.068 138.714 128.712 139.133 128.284C139.311 128.102 138.955 128.466 139.133 128.284Z" fill="#51524A"/>
<path fill-rule="evenodd" clip-rule="evenodd" d="M140.987 130.097C141.406 129.668 140.744 129.024 140.327 129.45C139.911 129.881 140.571 130.528 140.987 130.097Z" fill="#51524A"/>
<path fill-rule="evenodd" clip-rule="evenodd" d="M142.844 131.907C143.264 131.479 142.601 130.835 142.187 131.263C141.768 131.691 142.425 132.336 142.844 131.907Z" fill="#51524A"/>
<path fill-rule="evenodd" clip-rule="evenodd" d="M144.699 133.721C145.116 133.295 144.455 132.648 144.036 133.076C143.622 133.504 144.283 134.152 144.699 133.721C144.877 133.539 144.521 133.903 144.699 133.721Z" fill="#51524A"/>
<path d="M51.0022 56.7451C48.0639 60.8115 54.1898 68.4067 55.2715 69.1522L56.7061 68.2976C56.7061 68.2976 52.0932 62.7041 53.7698 59.2164L51.0022 56.7451Z" fill="#51524A"/>
<path d="M51.4844 56.2051C55.1935 52.8269 63.431 58.0574 64.2936 59.0481L63.6063 60.57C63.6063 60.57 57.5284 56.6172 54.252 58.6764L51.4844 56.2051Z" fill="#51524A"/>
<path d="M55.5257 66.6404C55.1396 66.0385 54.7161 65.314 54.35 64.5253C53.4352 64.4274 52.5222 64.3099 51.618 64.1532C52.1034 65.0904 52.6608 65.9764 53.197 66.7333C53.2025 66.733 53.2054 66.7356 53.2139 66.7379C53.9797 66.7029 54.7511 66.6675 55.5257 66.6404Z" fill="#51524A"/>
<path d="M50.3753 58.1056C51.4194 58.7756 52.4557 59.4543 53.4796 60.1587C53.5389 59.8338 53.6319 59.5181 53.7759 59.2216L51.0083 56.7503C50.7018 57.1641 50.4977 57.6219 50.3753 58.1056Z" fill="#51524A"/>
<path d="M52.5867 55.4995C52.1891 55.6744 51.8168 55.9034 51.4849 56.2104L54.2525 58.6817C54.4774 58.5415 54.7123 58.4312 54.9569 58.3453C54.1908 57.4933 53.4555 56.354 52.5867 55.4995Z" fill="#51524A"/>
<path d="M60.5082 56.6647C59.89 56.3698 59.2308 56.0856 58.5491 55.8441C58.7262 56.7212 58.9008 57.6011 59.0476 58.4826C59.4309 58.594 59.8067 58.7196 60.1665 58.8573C60.3027 58.1288 60.4139 57.3991 60.5082 56.6647Z" fill="#51524A"/>
<path opacity="0.4" d="M50.2958 58.4647C50.04 59.9206 50.4467 61.5747 51.1313 63.1409C52.0642 63.2655 52.998 63.4068 53.9306 63.5259C53.6059 62.6378 53.3902 61.7159 53.4101 60.8416C52.3577 60.075 51.3331 59.2598 50.2958 58.4647Z" fill="#51524A"/>
<path opacity="0.4" d="M52.5073 65.7134C52.6352 65.9168 52.7658 66.1173 52.8986 66.3094C53.713 66.3493 54.5314 66.3612 55.3495 66.3676C55.2825 66.2605 55.2151 66.1479 55.1478 66.0353C54.2671 65.952 53.3846 65.8356 52.5073 65.7134Z" fill="#51524A"/>
<path opacity="0.4" d="M53.435 67.0716C54.2425 68.1652 54.9656 68.942 55.2742 69.1546L56.7089 68.3001C56.7089 68.3001 56.3309 67.8419 55.832 67.1078C55.0334 67.1031 54.2319 67.0958 53.435 67.0716Z" fill="#51524A"/>
<path opacity="0.4" d="M56.7905 55.3338C55.5385 55.0554 54.2928 54.9872 53.2091 55.2842C54.185 56.2186 55.145 57.1649 56.1105 58.111C56.6459 58.0696 57.2023 58.1047 57.7618 58.195C57.3898 57.2542 57.037 56.3095 56.7905 55.3338Z" fill="#51524A"/>
<path opacity="0.4" d="M62.349 59.8513C63.1204 60.2567 63.6124 60.5754 63.6124 60.5754L64.2997 59.0535C64.1247 58.85 63.6347 58.4702 62.9385 58.0217C62.7542 58.6336 62.5613 59.2433 62.349 59.8513Z" fill="#51524A"/>
<path d="M54.7802 59.3895C52.6035 61.8272 57.8998 68.9177 76.1237 84.1779C94.3476 99.438 143.575 141.878 147.013 144.445C150.451 147.011 148.15 144.112 147.1 142.838L54.7802 59.3895Z" fill="white"/>
</g>
<defs>
<linearGradient id="paint0_linear_3625_285" x1="164.215" y1="156.985" x2="184.433" y2="140.886" gradientUnits="userSpaceOnUse">
<stop stop-color="#27282D"/>
<stop offset="0.444" stop-color="#9193A8"/>
<stop offset="0.9308" stop-color="#CFD0D9"/>
</linearGradient>
<clipPath id="clip0_3625_285">
<rect width="141.628" height="180" fill="white" transform="translate(0 105.642) rotate(-48.2371)"/>
</clipPath>
</defs>
</svg>
