<svg width="186" height="171" viewBox="0 0 186 171" fill="none" xmlns="http://www.w3.org/2000/svg">
<path d="M35.0056 58.8568C34.6904 59.0087 34.3088 58.8765 34.1572 58.56C34.0042 58.2445 34.1374 57.8641 34.4528 57.7111L40.3039 54.8875C40.6192 54.7344 40.9995 54.8676 41.1522 55.1843C41.304 55.4996 41.1708 55.88 40.8556 56.0318L35.0056 58.8568Z" fill="#222736"/>
<path d="M17.4847 35.7354C17.1394 35.7975 16.8104 35.5673 16.7472 35.2217C16.6864 34.8763 16.9155 34.5458 17.2609 34.4837L23.6536 33.3363C23.999 33.2743 24.3293 33.5034 24.3911 33.8501C24.4519 34.1954 24.2228 34.526 23.8777 34.5868L17.4847 35.7354Z" fill="#222736"/>
<path d="M66.2982 82.1599C66.0976 82.4473 65.7023 82.5176 65.4151 82.3169C65.1267 82.1161 65.0564 81.7206 65.2573 81.4321L68.9782 76.1067C69.179 75.8182 69.5755 75.748 69.8637 75.9501C70.1496 76.1518 70.221 76.5474 70.0204 76.8348L66.2982 82.1599Z" fill="#222736"/>
<path d="M144.376 102.55C144.5 102.879 144.866 103.044 145.195 102.92C145.522 102.795 145.688 102.428 145.565 102.1L143.269 96.0213C143.144 95.6918 142.778 95.5279 142.45 95.6522C142.122 95.7754 141.957 96.1424 142.08 96.4716L144.376 102.55Z" fill="#222736"/>
<path d="M173 97.8635C173.208 98.1458 173.604 98.2072 173.886 97.9992C174.171 97.7915 174.231 97.394 174.023 97.1104L170.179 91.8742C169.97 91.5904 169.574 91.5303 169.291 91.7381C169.008 91.9461 168.947 92.3435 169.156 92.6272L173 97.8635Z" fill="#222736"/>
<path d="M105.643 97.8777C105.59 98.2253 105.83 98.549 106.176 98.6015C106.522 98.6541 106.847 98.4159 106.9 98.0684L107.871 91.6439C107.924 91.2963 107.685 90.9714 107.338 90.92C106.992 90.8675 106.667 91.1068 106.615 91.4532L105.643 97.8777Z" fill="#222736"/>
<path d="M36.1015 57.6238L110.764 27.8829L66.4279 80.6647L36.1015 57.6238Z" fill="#B4AFB7"/>
<path d="M144.402 100.889L110.764 27.8828L106.551 96.6938L144.402 100.889Z" fill="#B4AFB7"/>
<path d="M36.1014 57.6237L110.764 27.8829L18.7106 34.1934L36.1014 57.6237Z" fill="#1B3071"/>
<path d="M110.764 27.883L66.4277 80.6647L106.55 96.694L110.764 27.883Z" fill="#1B3071"/>
<path d="M144.401 100.889L110.764 27.8828L173.143 95.8884L144.401 100.889Z" fill="#1B3071"/>
<path d="M143.781 83.4101L173.143 95.8884L110.764 27.8829L18.7106 34.1934L48.4421 45.3225L46.0723 46.2926C45.7492 46.425 45.5929 46.797 45.7262 47.1217C45.8583 47.4462 46.229 47.6023 46.5547 47.4691L50.2558 45.9558L80.3272 55.7118L79.0706 57.1662C78.8404 57.4321 78.8695 57.8335 79.1354 58.0625C79.4001 58.2915 79.8011 58.2634 80.0327 57.9966L81.6098 56.1707L112.27 68.4199L112.157 70.8307C112.141 71.1827 112.411 71.4794 112.76 71.4959C113.111 71.5125 113.409 71.2412 113.427 70.8907L113.517 68.9585L142.032 82.6173L143.675 86.2665C143.819 86.5867 144.194 86.7289 144.514 86.585C144.834 86.4412 144.977 86.0648 144.833 85.7445L143.781 83.4101Z" fill="#9F9595"/>
<path d="M107.788 32.9602L59.4673 153.966L61.1112 154.623L109.432 33.617L107.788 32.9602Z" fill="#222736"/>
<path d="M115.002 63.6999C114.987 64.0506 115.257 64.3486 115.606 64.365C115.957 64.3817 116.255 64.1103 116.271 63.7597L116.577 57.2683C116.594 56.9177 116.323 56.6196 115.972 56.603C115.623 56.5865 115.324 56.8577 115.308 57.2085L115.002 63.6999Z" fill="#222736"/>
<path d="M146.52 79.138C146.665 79.4584 147.042 79.6007 147.359 79.4565C147.679 79.3139 147.823 78.9363 147.679 78.6162L145.014 72.6919C144.87 72.3716 144.494 72.2294 144.173 72.373C143.853 72.5168 143.712 72.8936 143.856 73.2138L146.52 79.138Z" fill="#222736"/>
<path d="M82.8772 50.8664C82.6484 51.1313 82.2458 51.1615 81.9823 50.9328C81.7166 50.7025 81.6862 50.3009 81.9164 50.0351L86.1655 45.1199C86.3945 44.8539 86.7957 44.8247 87.0628 45.0539C87.3275 45.2828 87.3565 45.6854 87.1262 45.9513L82.8772 50.8664Z" fill="#222736"/>
<path d="M49.4007 40.3379C49.0764 40.4701 48.7045 40.3138 48.5724 39.9893C48.4391 39.6647 48.5952 39.2938 48.9197 39.1604L54.9332 36.7024C55.2566 36.5689 55.6284 36.7251 55.7615 37.051C55.8937 37.3755 55.7376 37.7463 55.413 37.8797L49.4007 40.3379Z" fill="#222736"/>
<path d="M50.7895 39.0312L114.702 18.0178L83.9776 48.5661L50.7895 39.0312Z" fill="#1B3071"/>
<path d="M146.559 77.2902L114.702 18.0181L115.936 61.3328L146.559 77.2902Z" fill="#1B3071"/>
<path d="M50.7895 39.0312L114.702 18.0179L18.7108 34.1933L50.7895 39.0312Z" fill="#D2CBD3"/>
<path d="M114.701 18.018L83.9772 48.5663L115.936 61.3328L114.701 18.018Z" fill="#D2CBD3"/>
<path d="M146.559 77.2902L114.702 18.0181L173.144 95.8885L146.559 77.2902Z" fill="#D2CBD3"/>
<path d="M115.313 18.8768L116.678 15.46C116.86 15.0054 116.638 14.4895 116.184 14.3086C115.729 14.1262 115.214 14.3489 115.032 14.8023L113.668 18.2191C113.668 18.2191 113.934 18.1194 114.522 18.3549C115.112 18.5905 115.313 18.8768 115.313 18.8768Z" fill="#222736"/>
</svg>
